<svg xmlns="http://www.w3.org/2000/svg" xmlns:xlink="http://www.w3.org/1999/xlink" width="114" height="77" viewBox="0 0 114 77">
  <defs>
    <linearGradient id="linear-gradient" x1="-0.073" y1="-0.054" x2="0.988" y2="0.971" gradientUnits="objectBoundingBox">
      <stop offset="0" stop-color="#dff4ff"/>
      <stop offset="0.098" stop-color="#d6eaf5"/>
      <stop offset="0.268" stop-color="#bfd0d9"/>
      <stop offset="0.488" stop-color="#98a5ac"/>
      <stop offset="0.747" stop-color="#646b6e"/>
      <stop offset="1" stop-color="#2b2b2b"/>
    </linearGradient>
    <radialGradient id="radial-gradient" cx="-0.033" cy="0.009" r="0.748" gradientTransform="translate(0)" gradientUnits="objectBoundingBox">
      <stop offset="0" stop-color="#fff"/>
      <stop offset="0.306" stop-color="#a8a8a8"/>
      <stop offset="0.646" stop-color="#4f4f4f"/>
      <stop offset="0.885" stop-color="#161616"/>
      <stop offset="1"/>
    </radialGradient>
    <linearGradient id="linear-gradient-2" x1="-0.201" y1="0.187" x2="0.86" y2="1.212" gradientUnits="objectBoundingBox">
      <stop offset="0" stop-color="#dff4ff"/>
      <stop offset="0.086" stop-color="#d6eaf5"/>
      <stop offset="0.233" stop-color="#bed0d9"/>
      <stop offset="0.424" stop-color="#96a4ac"/>
      <stop offset="0.652" stop-color="#5f686d"/>
      <stop offset="0.907" stop-color="#1a1d1e"/>
      <stop offset="1"/>
    </linearGradient>
    <radialGradient id="radial-gradient-2" cx="-3.9" cy="-0.651" r="13.594" gradientTransform="translate(0.064) scale(0.873 1)" gradientUnits="objectBoundingBox">
      <stop offset="0" stop-color="#fff"/>
      <stop offset="0.31" stop-color="#fdfdfd"/>
      <stop offset="0.451" stop-color="#f6f6f6"/>
      <stop offset="0.557" stop-color="#e9e9e9"/>
      <stop offset="0.646" stop-color="#d7d7d7"/>
      <stop offset="0.724" stop-color="#bfbfbf"/>
      <stop offset="0.794" stop-color="#a2a2a2"/>
      <stop offset="0.859" stop-color="gray"/>
      <stop offset="0.92" stop-color="#575757"/>
      <stop offset="0.975" stop-color="#2b2b2b"/>
      <stop offset="1" stop-color="#141414"/>
    </radialGradient>
    <radialGradient id="radial-gradient-3" cx="-4.853" cy="-1.032" r="9.508" gradientTransform="translate(-0.008) scale(1.016 1)" xlink:href="#radial-gradient-2"/>
    <radialGradient id="radial-gradient-4" cx="-1.413" cy="-1.135" r="9.865" gradientTransform="translate(0)" xlink:href="#radial-gradient-2"/>
    <radialGradient id="radial-gradient-5" cx="-0.033" cy="0.008" r="0.748" gradientTransform="translate(0)" gradientUnits="objectBoundingBox">
      <stop offset="0" stop-color="#e6e6e6"/>
      <stop offset="0.104" stop-color="#d6d6d6"/>
      <stop offset="0.307" stop-color="#adadad"/>
      <stop offset="0.588" stop-color="#6c6c6c"/>
      <stop offset="0.933" stop-color="#121212"/>
      <stop offset="1"/>
    </radialGradient>
    <radialGradient id="radial-gradient-6" cx="0.162" cy="0.098" r="1.12" gradientTransform="translate(0)" gradientUnits="objectBoundingBox">
      <stop offset="0" stop-color="#fff"/>
      <stop offset="0.344" stop-color="#fdfdfd"/>
      <stop offset="0.481" stop-color="#f6f6f6"/>
      <stop offset="0.582" stop-color="#eaeaea"/>
      <stop offset="0.665" stop-color="#d8d8d8"/>
      <stop offset="0.737" stop-color="#c2c2c2"/>
      <stop offset="0.802" stop-color="#a6a6a6"/>
      <stop offset="0.86" stop-color="#848484"/>
      <stop offset="0.913" stop-color="#5f5f5f"/>
      <stop offset="0.949" stop-color="#404040"/>
      <stop offset="0.957" stop-color="#404040"/>
      <stop offset="1" stop-color="#404040"/>
      <stop offset="1"/>
    </radialGradient>
    <radialGradient id="radial-gradient-7" cx="-0.332" cy="-0.651" r="3.96" gradientTransform="translate(0)" gradientUnits="objectBoundingBox">
      <stop offset="0.169" stop-color="#fff"/>
      <stop offset="0.196" stop-color="#e0eff7"/>
      <stop offset="0.241" stop-color="#b2d9ec"/>
      <stop offset="0.287" stop-color="#8bc5e2"/>
      <stop offset="0.335" stop-color="#6bb5da"/>
      <stop offset="0.384" stop-color="#52a9d4"/>
      <stop offset="0.436" stop-color="#41a0cf"/>
      <stop offset="0.491" stop-color="#369bcd"/>
      <stop offset="0.556" stop-color="#39c"/>
      <stop offset="0.606" stop-color="#3396c8"/>
      <stop offset="0.655" stop-color="#328ebc"/>
      <stop offset="0.705" stop-color="#3180a8"/>
      <stop offset="0.754" stop-color="#2f6d8c"/>
      <stop offset="0.803" stop-color="#2d5468"/>
      <stop offset="0.851" stop-color="#2a373d"/>
      <stop offset="0.871" stop-color="#292929"/>
    </radialGradient>
    <radialGradient id="radial-gradient-8" cx="-1.332" cy="-1.651" r="3.96" xlink:href="#radial-gradient-7"/>
    <radialGradient id="radial-gradient-9" cx="-0.033" cy="0.009" r="0.748" xlink:href="#radial-gradient-5"/>
    <linearGradient id="linear-gradient-3" x1="-0.22" y1="-0.377" x2="1.28" y2="1.073" gradientUnits="objectBoundingBox">
      <stop offset="0" stop-color="#f0f4ff"/>
      <stop offset="0.109" stop-color="#ebeff9"/>
      <stop offset="0.247" stop-color="#dce0ea"/>
      <stop offset="0.403" stop-color="#c4c7cf"/>
      <stop offset="0.57" stop-color="#a2a4ab"/>
      <stop offset="0.747" stop-color="#76777c"/>
      <stop offset="0.929" stop-color="#414243"/>
      <stop offset="1" stop-color="#2b2b2b"/>
    </linearGradient>
    <linearGradient id="linear-gradient-4" x1="-0.401" y1="-0.189" x2="1.099" y2="1.26" xlink:href="#linear-gradient-3"/>
    <linearGradient id="linear-gradient-5" x1="0.325" y1="0.331" x2="1.102" y2="1.082" gradientUnits="objectBoundingBox">
      <stop offset="0" stop-color="#c2d7e8"/>
      <stop offset="0.134" stop-color="#bacfe1"/>
      <stop offset="0.343" stop-color="#a4bacd"/>
      <stop offset="0.6" stop-color="#8098ac"/>
      <stop offset="0.894" stop-color="#4e697f"/>
      <stop offset="1" stop-color="#3a566d"/>
    </linearGradient>
    <linearGradient id="linear-gradient-6" x1="-0.073" y1="-0.53" x2="1.426" y2="0.922" gradientUnits="objectBoundingBox">
      <stop offset="0" stop-color="#f0f4ff"/>
      <stop offset="0.097" stop-color="#e8ebf6"/>
      <stop offset="0.257" stop-color="#d1d4dd"/>
      <stop offset="0.459" stop-color="#abaeb5"/>
      <stop offset="0.695" stop-color="#78797d"/>
      <stop offset="0.958" stop-color="#363637"/>
      <stop offset="1" stop-color="#2b2b2b"/>
    </linearGradient>
    <linearGradient id="linear-gradient-7" x1="-0.008" y1="0.009" x2="0.518" y2="0.518" gradientUnits="objectBoundingBox">
      <stop offset="0" stop-color="#d9def0"/>
      <stop offset="0.123" stop-color="#d4daec"/>
      <stop offset="0.263" stop-color="#c7cfe2"/>
      <stop offset="0.411" stop-color="#b0bcd1"/>
      <stop offset="0.566" stop-color="#90a1b8"/>
      <stop offset="0.725" stop-color="#677f99"/>
      <stop offset="0.885" stop-color="#355674"/>
      <stop offset="0.972" stop-color="#173d5d"/>
    </linearGradient>
    <linearGradient id="linear-gradient-8" x1="-0.547" y1="-0.038" x2="0.953" y2="1.411" xlink:href="#linear-gradient-3"/>
  </defs>
  <g id="Group_3637" data-name="Group 3637" transform="translate(-1228 -831)">
    <g id="Group_3636" data-name="Group 3636">
      <g id="Group_3635" data-name="Group 3635">
        <g id="Rectangle_52" data-name="Rectangle 52" transform="translate(1228 831)" fill="#fff" stroke="#000" stroke-width="1">
          <rect width="114" height="77" stroke="none"/>
          <rect x="0.5" y="0.5" width="113" height="76" fill="none"/>
        </g>
      </g>
      <g id="BMW-Logo.wine" transform="translate(1261 846)">
        <path id="Path_52" data-name="Path 52" d="M23.635,0A23.634,23.634,0,1,0,47.269,23.634,23.635,23.635,0,0,0,23.635,0Zm0,46.087A22.453,22.453,0,1,1,46.087,23.634,22.452,22.452,0,0,1,23.635,46.087Z" fill="url(#linear-gradient)"/>
        <path id="Path_53" data-name="Path 53" d="M66.98,44.337A22.622,22.622,0,1,1,44.358,21.715,22.623,22.623,0,0,1,66.98,44.337Z" transform="translate(-20.723 -20.702)" fill="#333"/>
        <path id="Path_54" data-name="Path 54" d="M70.27,47.789A22.452,22.452,0,1,1,47.817,25.336,22.452,22.452,0,0,1,70.27,47.789Z" transform="translate(-24.182 -24.155)" fill="url(#radial-gradient)"/>
        <path id="Path_55" data-name="Path 55" d="M214.148,199.085a15.053,15.053,0,1,1-15.053-15.053A15.052,15.052,0,0,1,214.148,199.085Z" transform="translate(-175.46 -175.451)" fill="url(#linear-gradient-2)"/>
        <path id="Path_56" data-name="Path 56" d="M438.56,53.956h1.188V48.021h-1.785l-1.623,4.25h.015l-1.623-4.25h-1.785v5.935h1.188V49.812l1.564,4.144H437l1.564-4.144Zm15.892,4.052.864,1.037L450.3,61.564l-1.014-1.227,1.944-2.932-.012-.014-3.234,1.384-1.025-1.219,3.382-4.479.865,1.037-2.118,2.852,3.277-1.462.927,1.113-2.029,2.959Z" transform="translate(-412.759 -45.782)"/>
        <path id="Path_57" data-name="Path 57" d="M124.409,163.57a1.514,1.514,0,0,0-1.909-.174,1.319,1.319,0,0,0,.009-.887,2.118,2.118,0,0,0-.648-.819c-.8-.668-1.636-.1-2.235.616l-2.9,3.452,4.553,3.82,3.054-3.639C125.035,165.108,125.143,164.283,124.409,163.57Zm-5.89,1.665,1.74-2.073a.709.709,0,0,1,.95.016.625.625,0,0,1,.107.911l-1.72,2.049Zm4.8.345-1.814,2.161-1.136-.954,1.827-2.178a.744.744,0,0,1,1.122.971Z" transform="translate(-111.286 -153.868)" fill="#333"/>
        <path id="Path_58" data-name="Path 58" d="M438.825,49.038h1.188V43.1h-1.785l-1.623,4.25h.015L435,43.1h-1.785v5.935H434.4V44.894l1.564,4.144h1.3l1.564-4.144Z" transform="translate(-413.011 -41.093)" fill="url(#radial-gradient-2)"/>
        <path id="Path_59" data-name="Path 59" d="M741.25,152.86l.864,1.037-5.015,2.519-1.014-1.228,1.944-2.931-.011-.015-3.235,1.385-1.024-1.219,3.382-4.478.865,1.037-2.117,2.852,3.276-1.461.927,1.113-2.028,2.959Z" transform="translate(-699.544 -141.032)" fill="url(#radial-gradient-3)"/>
        <path id="Path_60" data-name="Path 60" d="M119.849,161.061a1.513,1.513,0,0,0-1.908-.175,1.322,1.322,0,0,0,.008-.886,2.1,2.1,0,0,0-.649-.819c-.8-.668-1.635-.1-2.233.617l-2.9,3.451,4.554,3.82,3.054-3.64C120.474,162.6,120.583,161.774,119.849,161.061Zm-5.89,1.665,1.74-2.073a.709.709,0,0,1,.95.015.624.624,0,0,1,.106.911l-1.719,2.05Zm4.8.345-1.814,2.161-1.138-.954,1.828-2.179a.745.745,0,0,1,1.123.972Z" transform="translate(-106.939 -151.476)" fill="url(#radial-gradient-4)"/>
        <path id="Path_61" data-name="Path 61" d="M194.788,209.322a14.552,14.552,0,1,1,14.552,14.552A14.552,14.552,0,0,1,194.788,209.322Z" transform="translate(-185.705 -185.688)" fill="url(#radial-gradient-5)"/>
        <path id="Path_62" data-name="Path 62" d="M203.759,217.874a14.134,14.134,0,1,1,14.134,14.134A14.134,14.134,0,0,1,203.759,217.874Z" transform="translate(-194.258 -194.24)" fill="url(#radial-gradient-6)"/>
        <path id="Path_63" data-name="Path 63" d="M203.284,217.433H217.44V203.277A14.155,14.155,0,0,0,203.284,217.433Z" transform="translate(-193.805 -193.798)" fill="url(#radial-gradient-7)"/>
        <path id="Path_64" data-name="Path 64" d="M506.86,506.852v14.156a14.156,14.156,0,0,0,14.156-14.156Z" transform="translate(-483.225 -483.218)" fill="url(#radial-gradient-8)"/>
        <path id="Path_65" data-name="Path 65" d="M215.292,200.75h-.5v14.022H200.768v.5H214.79V229.3h.5V215.274h14.022v-.5H215.292Z" transform="translate(-191.406 -191.389)" fill="url(#radial-gradient-9)"/>
        <path id="Path_66" data-name="Path 66" d="M512.241,204.126a13.879,13.879,0,0,1,13.627,13.625h.25a14.129,14.129,0,0,0-13.877-13.876v.251Z" transform="translate(-488.355 -194.368)" fill="url(#linear-gradient-3)"/>
        <path id="Path_67" data-name="Path 67" d="M203.6,217.326a13.9,13.9,0,0,1,13.644-13.644v-.251a14.148,14.148,0,0,0-13.9,13.895h.251Z" transform="translate(-193.864 -193.945)" fill="#c2d7e8"/>
        <path id="Path_68" data-name="Path 68" d="M217.761,525.851a13.877,13.877,0,0,1-13.626-13.626h-.251A14.129,14.129,0,0,0,217.761,526.1v-.251Z" transform="translate(-194.377 -488.34)" fill="url(#linear-gradient-4)"/>
        <path id="Path_69" data-name="Path 69" d="M525.87,512.225a13.879,13.879,0,0,1-13.627,13.626v.251a14.128,14.128,0,0,0,13.877-13.877Z" transform="translate(-488.357 -488.34)" fill="#12404f"/>
        <path id="Path_70" data-name="Path 70" d="M203.614,217.053v.269H217.5v-13.89h-.268v13.621Z" transform="translate(-194.12 -193.946)" fill="url(#linear-gradient-5)"/>
        <path id="Path_71" data-name="Path 71" d="M206.029,512.965V512.7H219.78v13.723h-.265V512.965Z" transform="translate(-196.422 -488.793)" fill="url(#linear-gradient-6)"/>
        <path id="Path_72" data-name="Path 72" d="M526.459,512.965V512.7H512.737v13.723H513V512.965Z" transform="translate(-488.828 -488.793)" fill="url(#linear-gradient-7)"/>
        <path id="Path_73" data-name="Path 73" d="M526.459,219.468v.265H512.737V206.011H513v13.457Z" transform="translate(-488.828 -196.405)" fill="url(#linear-gradient-8)"/>
      </g>
    </g>
  </g>
</svg>
