<svg xmlns="http://www.w3.org/2000/svg" width="114" height="77" viewBox="0 0 114 77">
  <g id="Group_3604" data-name="Group 3604" transform="translate(-2029 -5702)">
    <g id="Rectangle_1732" data-name="Rectangle 1732" transform="translate(2029 5702)" fill="#fff" stroke="#ebebeb" stroke-width="1">
      <rect width="114" height="77" stroke="none"/>
      <rect x="0.5" y="0.5" width="113" height="76" fill="none"/>
    </g>
    <g id="sedan-car-model" transform="translate(2053 5729)">
      <g id="Group_64" data-name="Group 64" transform="translate(0 0)">
        <path id="Path_35" data-name="Path 35" d="M14.728,52.156a4.922,4.922,0,0,1,4.922,4.922,4.781,4.781,0,0,1-.043.618,4.918,4.918,0,0,1-9.779-.2c-.011-.138-.02-.278-.02-.42A4.92,4.92,0,0,1,14.728,52.156Zm2.464,3.067-1,1a1.7,1.7,0,0,1,.179.432h1.414A3.04,3.04,0,0,0,17.192,55.223Zm.6,2.288H16.363a1.65,1.65,0,0,1-.179.427l1.006,1.005A3.079,3.079,0,0,0,17.788,57.512Zm-2.634,2.624a3.066,3.066,0,0,0,1.428-.592l-1-1a1.694,1.694,0,0,1-.427.173Zm0-4.694a1.71,1.71,0,0,1,.435.181l1-1a3.058,3.058,0,0,0-1.437-.594ZM14.3,54.024a3.063,3.063,0,0,0-1.437.6l1,1a1.71,1.71,0,0,1,.435-.181V54.024Zm0,6.11V58.716a1.681,1.681,0,0,1-.426-.174l-1,1A3.067,3.067,0,0,0,14.3,60.134Zm-2.038-1.186,1.009-1.01a1.663,1.663,0,0,1-.183-.426H11.675A3.07,3.07,0,0,0,12.264,58.948Zm.824-2.289a1.723,1.723,0,0,1,.179-.432l-1-1a3.072,3.072,0,0,0-.589,1.437h1.415Z" transform="translate(39.111 -38.791)"/>
        <path id="Path_36" data-name="Path 36" d="M76.737,52.156a4.922,4.922,0,0,1,4.922,4.922,4.78,4.78,0,0,1-.044.618,4.918,4.918,0,0,1-9.779-.2c-.011-.138-.02-.278-.02-.42A4.92,4.92,0,0,1,76.737,52.156ZM79.2,55.223l-1,1a1.7,1.7,0,0,1,.179.432h1.414A3.047,3.047,0,0,0,79.2,55.223Zm.6,2.288H78.371a1.651,1.651,0,0,1-.179.427L79.2,58.944A3.053,3.053,0,0,0,79.8,57.512Zm-2.634,2.624a3.066,3.066,0,0,0,1.428-.592l-1-1a1.694,1.694,0,0,1-.427.173Zm0-4.694a1.71,1.71,0,0,1,.435.181l1-1a3.056,3.056,0,0,0-1.437-.594Zm-.853-1.417a3.063,3.063,0,0,0-1.437.6l1,1a1.664,1.664,0,0,1,.435-.181Zm0,6.11V58.716a1.681,1.681,0,0,1-.426-.174l-1,1A3.07,3.07,0,0,0,76.31,60.134Zm-2.037-1.186,1.009-1.009a1.645,1.645,0,0,1-.183-.426H73.684A3.064,3.064,0,0,0,74.273,58.948Zm.824-2.289a1.7,1.7,0,0,1,.179-.432l-1-1a3.073,3.073,0,0,0-.59,1.437H75.1Z" transform="translate(-63.766 -38.791)"/>
        <path id="Path_37" data-name="Path 37" d="M1.153,42.694V39.052a1.186,1.186,0,0,1,1-1.172,48.484,48.484,0,0,0,4.956-.969c1.586-.489,7.712-3.083,9.834-3.57s11.69-3.088,20.855.089c1.551.537,8.527,3.872,12.629,5.606,1.208.026,13.165,2.519,13.8,4.227a27.628,27.628,0,0,1,.954,2.972,7.006,7.006,0,0,1-.888,3.954,14.271,14.271,0,0,1-4.664,1.087c.023-.123.048-.245.064-.369a5.668,5.668,0,0,0,.051-.741,5.91,5.91,0,1,0-11.821,0c0,.167.011.333.024.5a5.752,5.752,0,0,0,.192,1.063h-.016L18.79,51.135c.013-.076.03-.151.04-.228a5.645,5.645,0,0,0,.051-.741,5.911,5.911,0,0,0-11.822,0c0,.013,0,.023,0,.035l-.125-.011-5.016-.944A4.271,4.271,0,0,1,0,45.408,3.384,3.384,0,0,1,1.153,42.694Zm29.1-3.453,10.957.335c-.2-1.642.77-2.01.77-2.01-4.356-3.954-13.134-4.087-13.134-4.087Zm-12.3-.5,9.985.335-.9-5.6a23.653,23.653,0,0,0-8.108,1.072L17.457,36.93Zm-5.629-.034h2.782l2.781-3.819c-2.087.83-3.757,1.649-4.751,2.166A1.552,1.552,0,0,0,12.33,38.705Z" transform="translate(0.001 -31.876)"/>
      </g>
    </g>
  </g>
</svg>
