<svg xmlns="http://www.w3.org/2000/svg" xmlns:xlink="http://www.w3.org/1999/xlink" width="114" height="77" viewBox="0 0 114 77">
  <defs>
    <radialGradient id="radial-gradient" cx="0.497" cy="1.699" r="5.988" gradientTransform="translate(-9.611 5.274) scale(0.365 0.508)" gradientUnits="objectBoundingBox">
      <stop offset="0" stop-color="#00082e"/>
      <stop offset="0.155" stop-color="#000a30"/>
      <stop offset="0.242" stop-color="#010f39"/>
      <stop offset="0.312" stop-color="#011946"/>
      <stop offset="0.373" stop-color="#02275a"/>
      <stop offset="0.414" stop-color="#03346c"/>
      <stop offset="0.439" stop-color="#0b4f87"/>
      <stop offset="0.48" stop-color="#1676af"/>
      <stop offset="0.513" stop-color="#1c8ec7"/>
      <stop offset="0.533" stop-color="#1f97d0"/>
      <stop offset="1" stop-color="#1f97d0"/>
    </radialGradient>
    <linearGradient id="linear-gradient" x1="-20.13" y1="7.531" x2="-20.118" y2="7.531" gradientUnits="objectBoundingBox">
      <stop offset="0" stop-color="#00082e"/>
      <stop offset="0.321" stop-color="#010a30"/>
      <stop offset="0.501" stop-color="#030f39"/>
      <stop offset="0.647" stop-color="#071846"/>
      <stop offset="0.773" stop-color="#0d245a"/>
      <stop offset="0.809" stop-color="#0f2961"/>
      <stop offset="0.839" stop-color="#0b386e"/>
      <stop offset="0.896" stop-color="#054e83"/>
      <stop offset="0.951" stop-color="#015b90"/>
      <stop offset="1" stop-color="#006094"/>
    </linearGradient>
    <linearGradient id="linear-gradient-2" x1="-19.465" y1="6.055" x2="-19.453" y2="6.055" xlink:href="#linear-gradient"/>
    <linearGradient id="linear-gradient-3" x1="-1469.482" y1="30.82" x2="-1468.604" y2="30.82" xlink:href="#linear-gradient"/>
    <linearGradient id="linear-gradient-4" x1="-6648.193" y1="148.931" x2="-6644.261" y2="148.931" xlink:href="#linear-gradient"/>
    <linearGradient id="linear-gradient-5" x1="-1953.813" y1="87.077" x2="-1952.662" y2="87.077" xlink:href="#linear-gradient"/>
    <linearGradient id="linear-gradient-6" x1="-2508.343" y1="62.661" x2="-2506.835" y2="62.661" xlink:href="#linear-gradient"/>
    <linearGradient id="linear-gradient-7" x1="-342.705" y1="16.017" x2="-342.501" y2="16.017" xlink:href="#linear-gradient"/>
    <linearGradient id="linear-gradient-8" x1="-370.136" y1="15.032" x2="-369.912" y2="15.032" xlink:href="#linear-gradient"/>
    <linearGradient id="linear-gradient-9" x1="-157.662" y1="15.587" x2="-157.567" y2="15.587" xlink:href="#linear-gradient"/>
    <linearGradient id="linear-gradient-10" x1="-115.464" y1="16.715" x2="-115.395" y2="16.715" xlink:href="#linear-gradient"/>
    <linearGradient id="linear-gradient-11" x1="-545.797" y1="27.886" x2="-545.47" y2="27.886" xlink:href="#linear-gradient"/>
    <linearGradient id="linear-gradient-12" x1="-221.092" y1="8.216" x2="-220.961" y2="8.216" xlink:href="#linear-gradient"/>
    <linearGradient id="linear-gradient-13" x1="-1521.365" y1="40.419" x2="-1520.449" y2="40.419" xlink:href="#linear-gradient"/>
    <linearGradient id="linear-gradient-14" x1="-102.05" y1="10.918" x2="-101.988" y2="10.918" xlink:href="#linear-gradient"/>
    <linearGradient id="linear-gradient-15" x1="-553.474" y1="18.896" x2="-553.137" y2="18.896" xlink:href="#linear-gradient"/>
    <linearGradient id="linear-gradient-16" x1="-125.93" y1="21.692" x2="-125.854" y2="21.692" xlink:href="#linear-gradient"/>
    <linearGradient id="linear-gradient-17" x1="-72.269" y1="8.355" x2="-72.225" y2="8.355" xlink:href="#linear-gradient"/>
    <linearGradient id="linear-gradient-18" x1="-461.559" y1="52.535" x2="-461.278" y2="52.535" xlink:href="#linear-gradient"/>
    <linearGradient id="linear-gradient-19" x1="-76.26" y1="16.83" x2="-76.213" y2="16.83" xlink:href="#linear-gradient"/>
    <linearGradient id="linear-gradient-20" x1="-1306.679" y1="64.77" x2="-1305.891" y2="64.77" xlink:href="#linear-gradient"/>
    <linearGradient id="linear-gradient-21" x1="-873.74" y1="31.471" x2="-873.214" y2="31.471" xlink:href="#linear-gradient"/>
    <linearGradient id="linear-gradient-22" x1="-203.319" y1="19.505" x2="-203.195" y2="19.505" xlink:href="#linear-gradient"/>
    <linearGradient id="linear-gradient-23" x1="-31.356" y1="6.679" x2="-31.336" y2="6.679" gradientUnits="objectBoundingBox">
      <stop offset="0" stop-color="#a5a5a6"/>
      <stop offset="0.35" stop-color="#d7d7d7"/>
      <stop offset="0.65" stop-color="#d7d7d7"/>
      <stop offset="1" stop-color="#a5a5a6"/>
    </linearGradient>
    <linearGradient id="linear-gradient-24" x1="-25.92" y1="8.551" x2="-26.118" y2="6.372" xlink:href="#linear-gradient-23"/>
  </defs>
  <g id="Group_3649" data-name="Group 3649" transform="translate(-1228 -1209)">
    <g id="Rectangle_59" data-name="Rectangle 59" transform="translate(1228 1209)" fill="#fff" stroke="#000" stroke-width="1">
      <rect width="114" height="77" stroke="none"/>
      <rect x="0.5" y="0.5" width="113" height="76" fill="none"/>
    </g>
    <g id="ford-8" transform="translate(1242.923 1227.539)">
      <path id="Path_17219" data-name="Path 17219" d="M42.536,6.461C22.3,6.461,6.077,12.527,6.077,20.132c0,7.56,16.356,13.672,36.46,13.672S79,27.671,79,20.132,62.641,6.461,42.536,6.461M78.775,19.076c.013.067.022.134.034.2-.01-.064-.023-.131-.034-.2" transform="translate(0)" fill="#c9c9ca"/>
      <path id="Path_17220" data-name="Path 17220" d="M44.2,8.628c-19.835,0-35.9,5.863-35.9,13.118S24.362,34.864,44.2,34.864,80.1,29,80.1,21.746,64.034,8.628,44.2,8.628" transform="translate(-1.659 -1.621)" fill="url(#radial-gradient)"/>
      <path id="Path_17221" data-name="Path 17221" d="M52.39,17.869c16.863,0,30.787,4.12,32.915,9.452h0C83.884,21.711,69.618,17.3,52.224,17.3c-18.334,0-33.2,4.9-33.2,10.937a3.886,3.886,0,0,0,.289,1.451,3.721,3.721,0,0,1-.125-.95C19.194,22.738,34.056,17.869,52.39,17.869Z" transform="translate(-9.69 -8.112)" fill="url(#linear-gradient)"/>
      <path id="Path_17222" data-name="Path 17222" d="M84.432,55.292a4.39,4.39,0,0,1,.22,1.368c0,6.614-15.4,11.975-34.4,11.975-16.909,0-30.967-4.247-33.86-9.839,2.195,5.812,16.57,10.3,34,10.321H50.6c18.951-.019,34.3-5.325,34.3-11.873a4.467,4.467,0,0,0-.463-1.952Z" transform="translate(-7.715 -36.531)" fill="url(#linear-gradient-2)"/>
      <path id="Path_17223" data-name="Path 17223" d="M174.544,65.894a1.1,1.1,0,0,1-.046-.623c.015-.076-.083-.145-.164-.062a1.688,1.688,0,0,0-.323,2.309.953.953,0,0,0,.609.257A1.714,1.714,0,0,1,174.544,65.894Z" transform="translate(-125.389 -43.922)" fill="url(#linear-gradient-3)"/>
      <path id="Path_17224" data-name="Path 17224" d="M207.884,72.621h0c.039-.076.079-.156.121-.243.032-.066.016-.085-.011-.1-.079-.028-.161-.089-.172-.152a.1.1,0,0,1-.007-.035V72.1c.01.121.042.349.068.519Z" transform="translate(-150.924 -49.103)" fill="url(#linear-gradient-4)"/>
      <path id="Path_17225" data-name="Path 17225" d="M211.562,61.693a1.389,1.389,0,0,1,.443.821c.011.13.111.145.192.031.021-.031.045-.07.074-.113-.022-.031-.047-.062-.069-.091a7.118,7.118,0,0,0-.64-.647Z" transform="translate(-153.727 -41.32)" fill="url(#linear-gradient-5)"/>
      <path id="Path_17226" data-name="Path 17226" d="M169.193,59.684a1.92,1.92,0,0,1,.289,1.2c0,.134.094.125.157.034l.1-.142v0a3.391,3.391,0,0,0-.548-1.09Z" transform="translate(-122.03 -39.817)" fill="url(#linear-gradient-6)"/>
      <path id="Path_17227" data-name="Path 17227" d="M196.585,64.858c-.635-.305-1.6.254-2.482,1.334a4.376,4.376,0,0,0-1.12,2.655.931.931,0,0,0,.387.838.839.839,0,0,0,.275.095,1.4,1.4,0,0,1-.048-.352,4.065,4.065,0,0,1,.99-2.689c.871-1.074,1.787-1.609,2.423-1.314A.7.7,0,0,0,196.585,64.858Z" transform="translate(-139.828 -43.626)" fill="url(#linear-gradient-7)"/>
      <path id="Path_17228" data-name="Path 17228" d="M128.026,64.676a4.873,4.873,0,0,1,2.284-1.623.159.159,0,0,0,.105-.214c-.037-.171-.156-.6-.193-.7a.151.151,0,0,1-.109.207,5.767,5.767,0,0,0-2.631,1.852,2.683,2.683,0,0,0-.461,2.979,1.2,1.2,0,0,0,.428.371,3.332,3.332,0,0,1,.576-2.873Z" transform="translate(-90.27 -41.655)" fill="url(#linear-gradient-8)"/>
      <path id="Path_17229" data-name="Path 17229" d="M150.529,78.69c.66,0,1.47,0,2.019,0a.236.236,0,0,0,.183-.112c.82-1.285,1.7-2.678,2.533-3.964a2.247,2.247,0,0,0,.62,1.256,1.536,1.536,0,0,0,1.143.4,3.557,3.557,0,0,0,1.358-.376,3.113,3.113,0,0,0,.488-.262,3.91,3.91,0,0,1,.066-.707c0-.025-.021-.183-.156-.089a3.84,3.84,0,0,1-.912.49,2.608,2.608,0,0,1-1.111.234,1.574,1.574,0,0,1-1.371-.769,2.284,2.284,0,0,1-.289-1.053c0-.036-.049-.1-.1-.017-.909,1.389-1.758,2.732-2.66,4.143a.209.209,0,0,1-.181.113c-.557,0-1.168,0-1.782,0a.119.119,0,0,1-.124-.074c.048.215.127.606.148.7a.118.118,0,0,0,.128.094Z" transform="translate(-107.861 -50.284)" fill="url(#linear-gradient-9)"/>
      <path id="Path_17230" data-name="Path 17230" d="M185.11,79.906a2,2,0,0,0,.7.723c1.182.583,2.87-.078,3.955-1.12a.36.36,0,0,1,.029-.032c.05.187.111.415.119.446a1.716,1.716,0,0,0,.291.579c.742.838,2.317.457,3.956-.812a15.863,15.863,0,0,0,2.428-2.388c.034-.04.03-.1.012-.19-.048-.211-.122-.591-.164-.783a.156.156,0,0,1-.032.088,17.983,17.983,0,0,1-2.748,2.769c-1.428,1.107-2.854,1.387-3.558.678a1.528,1.528,0,0,1-.425-.96c-.009-.173-.1-.181-.18-.1-.842.834-2.3,1.757-3.639,1.1a2.228,2.228,0,0,1-1.175-1.678c0,.007,0,.016.005.024a6.077,6.077,0,0,0,.425,1.657Z" transform="translate(-133.615 -52.269)" fill="url(#linear-gradient-10)"/>
      <path id="Path_17231" data-name="Path 17231" d="M178.882,64.487a1.566,1.566,0,0,0,.776-1.559,2.786,2.786,0,0,0-.333-1.164,1.349,1.349,0,0,1,.138.836,1.615,1.615,0,0,1-.856,1.233,1.1,1.1,0,0,1-1.23-.134.975.975,0,0,1-.236-.333,2.883,2.883,0,0,0,.266.848A1.042,1.042,0,0,0,178.882,64.487Z" transform="translate(-127.976 -41.373)" fill="url(#linear-gradient-11)"/>
      <path id="Path_17232" data-name="Path 17232" d="M217.922,44.943c-.277.479-5.617,8.61-5.955,9.451a.622.622,0,0,0-.011.616.523.523,0,0,0,.454.2,1.855,1.855,0,0,1,.106-.341c.338-.844,5.339-8.445,5.614-8.926a.163.163,0,0,0,.007-.118c-.016-.076-.184-.884-.2-.96a.109.109,0,0,1-.015.076Z" transform="translate(-153.966 -28.732)" fill="url(#linear-gradient-12)"/>
      <path id="Path_17233" data-name="Path 17233" d="M147.864,60.193c.016.017.028.034.042.051a3.55,3.55,0,0,1,.514,1.847c.019.147.082.15.153.075s.128-.136.191-.2a5.843,5.843,0,0,0-.389-1.034A3.28,3.28,0,0,0,147.864,60.193Z" transform="translate(-106.073 -40.198)" fill="url(#linear-gradient-13)"/>
      <path id="Path_17234" data-name="Path 17234" d="M111.75,71.218a.264.264,0,0,0,.246-.023,5.008,5.008,0,0,0,1.233-.995c.083-.077.162-.025.189.058a3.885,3.885,0,0,0,.469.937,1.99,1.99,0,0,0,1.145.819,3.607,3.607,0,0,0,2.4-.146,6.3,6.3,0,0,0,2.231-1.594,16.4,16.4,0,0,0,1.316-1.705,17.491,17.491,0,0,1,2.324-2.6c.374-.32.784-.528,1.041-.427.155-.4.081-.618-.083-.724-.25-.163-.751.082-1.174.4a15.891,15.891,0,0,0-2.61,2.84,17.05,17.05,0,0,1-1.317,1.705,4.134,4.134,0,0,1-4.279,1.518,2.569,2.569,0,0,1-1.657-1.764c-.046-.158-.134-.2-.22-.1a6.121,6.121,0,0,1-1.165,1.04.268.268,0,0,1-.256.052,2.622,2.622,0,0,1-.46-.606.123.123,0,0,1-.015-.042v.006a2.226,2.226,0,0,0,.639,1.34Z" transform="translate(-78.578 -43.623)" fill="url(#linear-gradient-14)"/>
      <path id="Path_17235" data-name="Path 17235" d="M75.125,63.332a3.536,3.536,0,0,1,1.453-1.478c.228-.145.329-.285.194-.661-.039-.108-.06-.3-.1-.472a.391.391,0,0,1-.217.388,4.111,4.111,0,0,0-1.813,1.67,2.05,2.05,0,0,0,.1,2.116,1.776,1.776,0,0,0,.131.17h0A2.58,2.58,0,0,1,75.125,63.332Z" transform="translate(-51.108 -40.593)" fill="url(#linear-gradient-15)"/>
      <path id="Path_17236" data-name="Path 17236" d="M95.3,30.469c2.355-.777,4.981-.286,7.09.166.295-.184.553-.311.812-.453.129-.068-.015-.148-.055-.148-2.723-.511-5.552-1.174-8.255-.173-1.874.7-2.694,2.185-2.3,3.176a.933.933,0,0,0,.354.441A3.076,3.076,0,0,1,95.3,30.469Z" transform="translate(-64.653 -17.117)" fill="url(#linear-gradient-16)"/>
      <path id="Path_17237" data-name="Path 17237" d="M68.36,62.782a4.059,4.059,0,0,0,2.419.74,6.946,6.946,0,0,0,5.192-2.483,35.848,35.848,0,0,0,4.555-6.431c.047-.083.1-.12.338-.151.9-.111,1.7-.162,2.493-.236.236-.022.416-.044.5.042a4.686,4.686,0,0,0,.839.676.529.529,0,0,1,.355.111.427.427,0,0,0,.231-.117.337.337,0,0,0,.09-.318,3.759,3.759,0,0,0-.151-.693.282.282,0,0,1-.07.3.377.377,0,0,1-.285.138.6.6,0,0,1-.293-.109,2.754,2.754,0,0,1-.819-.659c-.075-.094-.113-.1-.3-.086-.847.049-2.169.176-3.066.289-.216.027-.248.068-.293.142a37.5,37.5,0,0,1-4.628,6.6,6.465,6.465,0,0,1-4.874,2.315,3.751,3.751,0,0,1-3.868-2.844h0A5.03,5.03,0,0,0,68.36,62.782Z" transform="translate(-45.373 -35.194)" fill="url(#linear-gradient-17)"/>
      <path id="Path_17238" data-name="Path 17238" d="M99.838,56.8a.387.387,0,0,1-.063-.2,1.934,1.934,0,0,0,.2.9.467.467,0,0,0,.656.069,3.816,3.816,0,0,1,1.592-.742c.142-.194.295-.409.47-.651a.059.059,0,0,0,.013-.057c-.01-.022-.027-.028-.063-.03a3.705,3.705,0,0,0-2.2.777A.428.428,0,0,1,99.838,56.8Z" transform="translate(-70.095 -37.131)" fill="url(#linear-gradient-18)"/>
      <path id="Path_17239" data-name="Path 17239" d="M139.065,31.76a7.279,7.279,0,0,1-3.553.82c-2.991.024-5.778-1.141-8.66-1.767,0,.126.037.277-.069.356a13.678,13.678,0,0,0-4.007,4.053c-.032.039-.014.076.042.072.255-.012.5-.023.745-.037a11.473,11.473,0,0,1,3.262-3.233c.108-.082.215-.138.18-.445,2.892.642,5.091,1.705,8.825,1.715a7.949,7.949,0,0,0,3.531-.876c.971-.584,1.23-1.014,1.265-1.468a1.908,1.908,0,0,0-.049-.461c-.033-.154-.055-.35-.1-.5a.63.63,0,0,1,.016.2C140.464,30.716,140.06,31.218,139.065,31.76Z" transform="translate(-87.293 -17.605)" fill="url(#linear-gradient-19)"/>
      <path id="Path_17240" data-name="Path 17240" d="M136.537,44.448c-.036.034-.076.068-.115.1a1.207,1.207,0,0,0-.33.983c.023.12.07.144.125.133a1.012,1.012,0,0,0,.165-.052.714.714,0,0,1,.253-.466.5.5,0,0,1,.4-.133c.11-.218.142-.481.007-.6A.41.41,0,0,0,136.537,44.448Z" transform="translate(-97.259 -28.343)" fill="url(#linear-gradient-20)"/>
      <path id="Path_17241" data-name="Path 17241" d="M138.776,45.071a1.916,1.916,0,0,1-1.161.94s-.091.021-.077.1.318.288.511.425c.028-.008.07-.023.07-.023a1.525,1.525,0,0,0,.809-.785,1.709,1.709,0,0,0,.153-1.061,2.608,2.608,0,0,0-.214-.86A1.442,1.442,0,0,1,138.776,45.071Z" transform="translate(-98.347 -27.942)" fill="url(#linear-gradient-21)"/>
      <path id="Path_17242" data-name="Path 17242" d="M91.606,39.657c-.791,1.859-2.3,3.334-4.143,3.4a2.381,2.381,0,0,1-2.236-1.191,3.922,3.922,0,0,0,1.285,1.328,2.554,2.554,0,0,0,1.453.368,4.545,4.545,0,0,0,3.854-2.982,1.8,1.8,0,0,0-.031-1.007,2.711,2.711,0,0,0-.13-.489h0A.763.763,0,0,1,91.606,39.657Z" transform="translate(-59.213 -24.401)" fill="url(#linear-gradient-22)"/>
      <path id="Path_17243" data-name="Path 17243" d="M42.536,6.461C22.3,6.461,6.077,12.527,6.077,20.132c0,7.56,16.356,13.672,36.46,13.672S79,27.671,79,20.132,62.641,6.461,42.536,6.461M6.327,20.283A6.611,6.611,0,0,1,8.508,15.6c5.22-5.265,18.9-8.824,33.968-8.885,19.967-.083,36.237,5.87,36.272,13.271a6.624,6.624,0,0,1-2.223,4.664C71.3,29.913,57.67,33.494,42.6,33.554c-19.966.083-36.239-5.869-36.272-13.271m72.448-1.207c.013.067.022.134.034.2-.01-.064-.023-.131-.034-.2" transform="translate(0)" fill="#4b4b4b"/>
      <path id="Path_17244" data-name="Path 17244" d="M6.514,20.47a5.184,5.184,0,0,0,.115,1.061,5.149,5.149,0,0,1-.088-.909,6.759,6.759,0,0,1,2.213-4.767C14,10.561,27.693,7,42.8,6.935q3.14-.014,6.145.169-3.038-.191-6.083-.191C22.707,6.913,6.514,12.957,6.514,20.47Z" transform="translate(-0.327 -0.338)" fill="url(#linear-gradient-23)"/>
      <path id="Path_17245" data-name="Path 17245" d="M166.488,62.837c-5.231,5.274-18.917,8.874-34.006,8.937q-3.132.016-6.26-.17c2.014.128,4.086.193,6.2.193,20.042,0,36.348-6.119,36.348-13.554a5.253,5.253,0,0,0-.072-.846,5.25,5.25,0,0,1,.05.695,6.769,6.769,0,0,1-2.256,4.745" transform="translate(-89.882 -38.106)" fill="url(#linear-gradient-24)"/>
      <path id="Path_17246" data-name="Path 17246" d="M48.63,13.184c-19,0-34.406,5.36-34.406,11.975s15.4,11.975,34.406,11.975,34.4-5.361,34.4-11.975-15.4-11.975-34.4-11.975Zm0,22.912c-18.334,0-33.2-4.9-33.2-10.938S30.3,14.222,48.63,14.222s33.195,4.9,33.195,10.937S66.965,36.1,48.63,36.1Z" transform="translate(-6.095 -5.03)" fill="#fff"/>
      <path id="Path_17247" data-name="Path 17247" d="M142.519,44.741c.048-.083,0-.144-.107-.144l-1.843,0c-.137,0-.206.015-.271.143-.212.405-2.787,4.264-3.266,5.013-.081.114-.18.1-.192-.031a1.607,1.607,0,0,0-1.038-1.2,2.629,2.629,0,0,0-1.381-.159,4.931,4.931,0,0,0-2.265,1.064c-1,.761-1.863,1.745-2.976,2.473-.608.4-1.441.742-2,.226a1.689,1.689,0,0,1,.323-2.309c.081-.083.179-.014.164.062a1.015,1.015,0,0,0,.291.978,1.1,1.1,0,0,0,1.23.134,1.612,1.612,0,0,0,.856-1.233,1.405,1.405,0,0,0-1.292-1.6,2.576,2.576,0,0,0-1.854.672,3.537,3.537,0,0,0-.73.8c-.064.091-.161.1-.157-.034.029-1.049-.4-1.639-1.272-1.658a3.23,3.23,0,0,0-1.953.8,18.2,18.2,0,0,0-1.728,1.762c-.071.075-.134.072-.153-.075a3.548,3.548,0,0,0-.514-1.847.428.428,0,0,0-.555-.136,4.027,4.027,0,0,0-.653.389.369.369,0,0,0-.11.414,4.865,4.865,0,0,1-.179,3.218,3.539,3.539,0,0,1-2.022,2.015,1.332,1.332,0,0,1-1.562-.422,2.683,2.683,0,0,1,.461-2.979,5.767,5.767,0,0,1,2.631-1.852.153.153,0,0,0,.106-.216c-.053-.16-.137-.378-.172-.478-.089-.238-.341-.278-.647-.244a5.494,5.494,0,0,0-1.981.664,6.763,6.763,0,0,0-2.848,3.519,3.548,3.548,0,0,1-.519.96,9.482,9.482,0,0,1-1.187,1.152.211.211,0,0,0-.048.243,2.629,2.629,0,0,0,.46.606.269.269,0,0,0,.257-.052,6.121,6.121,0,0,0,1.165-1.04c.086-.1.174-.06.22.1a2.569,2.569,0,0,0,1.657,1.764,4.136,4.136,0,0,0,4.279-1.518,17.129,17.129,0,0,0,1.317-1.705,15.9,15.9,0,0,1,2.61-2.84c.423-.322.924-.567,1.174-.4.2.131.267.433-.057,1.023-1.174,2.146-2.9,4.667-3.221,5.276-.057.106-.006.19.1.19.614,0,1.224,0,1.782,0a.212.212,0,0,0,.181-.113c.9-1.412,1.751-2.754,2.66-4.143.051-.081.1-.018.1.017a2.3,2.3,0,0,0,.289,1.053,1.574,1.574,0,0,0,1.371.769,2.588,2.588,0,0,0,1.111-.234,3.877,3.877,0,0,0,.912-.49c.135-.094.159.064.156.089a2.663,2.663,0,0,0,1.162,3c1.334.657,2.8-.266,3.639-1.1.083-.08.171-.073.18.1a1.525,1.525,0,0,0,.425.96c.705.709,2.13.428,3.558-.678a17.987,17.987,0,0,0,2.748-2.769.126.126,0,0,0-.006-.174c-.131-.138-.323-.3-.454-.419a.166.166,0,0,0-.2,0,22.877,22.877,0,0,1-2.846,2.607c-.39.274-1.012.493-1.291.115a.621.621,0,0,1,.011-.616c.339-.843,5.679-8.974,5.956-9.453m-7.058,6.818c.011.062.092.122.172.152.027.011.043.03.011.1a7.781,7.781,0,0,1-.72,1.191,4.462,4.462,0,0,1-.913.989c-.539.446-1.287.93-1.9.6a.93.93,0,0,1-.387-.838,4.385,4.385,0,0,1,1.12-2.656c.876-1.079,1.846-1.639,2.482-1.334.657.314.448,1.076.153,1.674a.154.154,0,0,0-.013.122" transform="translate(-78.563 -28.53)" fill="#fff"/>
      <path id="Path_17248" data-name="Path 17248" d="M70.3,41.539a3.72,3.72,0,0,1-3.946-3.347,4.3,4.3,0,0,1,.89-3.1,4.412,4.412,0,0,1,2.444-1.571.93.93,0,0,1,.8.165.435.435,0,0,1-.069.711,4.111,4.111,0,0,0-1.813,1.67,2.051,2.051,0,0,0,.1,2.116c.8,1.207,3.029,1.241,5.1-.685a18.212,18.212,0,0,0,1.441-1.46,32.844,32.844,0,0,0,2.429-3.108.059.059,0,0,0,.013-.057c-.01-.022-.027-.028-.063-.03a3.706,3.706,0,0,0-2.2.777.429.429,0,0,1-.607-.066.485.485,0,0,1,.189-.651,8.147,8.147,0,0,1,3.542-1.116.2.2,0,0,0,.156-.09c.506-.648.887-1.234,1.427-1.891a14.548,14.548,0,0,1,1.781-1.736,7.924,7.924,0,0,1,1.716-1.125c.129-.068-.016-.148-.056-.148-2.723-.511-5.552-1.174-8.255-.173-1.873.7-2.694,2.185-2.3,3.176.28.7,1.206.818,2.072.394a4.69,4.69,0,0,0,1.858-1.653c.264-.406.82-.113.519.593-.791,1.859-2.3,3.334-4.143,3.4a2.415,2.415,0,0,1-2.575-2.523c.005-2.805,3.129-4.653,6.411-4.93,3.952-.326,7.7.727,11.619,1.2a25.3,25.3,0,0,0,8.912-.323.454.454,0,0,1,.584.511c-.029.522-.434,1.024-1.428,1.567a7.28,7.28,0,0,1-3.553.82c-2.991.024-5.778-1.141-8.66-1.767,0,.126.037.277-.069.356A13.678,13.678,0,0,0,80.566,31.5c-.032.039-.014.076.042.072.839-.044,1.595-.065,2.378-.128.137-.011.142-.045.13-.145a1.952,1.952,0,0,1,.609-1.694,1.137,1.137,0,1,1,1.786,1.407,1.916,1.916,0,0,1-1.161.94s-.091.021-.077.1c.017.131.609.46.659.547a.273.273,0,0,1-.067.31.376.376,0,0,1-.285.138.592.592,0,0,1-.293-.109,2.761,2.761,0,0,1-.819-.659c-.075-.094-.113-.1-.3-.086-.847.049-2.169.176-3.066.289-.216.027-.248.068-.293.142a37.5,37.5,0,0,1-4.628,6.6A6.465,6.465,0,0,1,70.3,41.539m13.61-10.465c.023.12.07.144.125.133a1.314,1.314,0,0,0,.746-.537c.161-.236.236-.575.076-.712a.424.424,0,0,0-.546.065,1.215,1.215,0,0,0-.4,1.05" transform="translate(-45.081 -13.882)" fill="#fff"/>
    </g>
  </g>
</svg>
