<svg xmlns="http://www.w3.org/2000/svg" width="114" height="77" viewBox="0 0 114 77">
  <g id="Group_3652" data-name="Group 3652" transform="translate(-1228 -1335)">
    <g id="Rectangle_62" data-name="Rectangle 62" transform="translate(1228 1335)" fill="#fff" stroke="#000" stroke-width="1">
      <rect width="114" height="77" stroke="none"/>
      <rect x="0.5" y="0.5" width="113" height="76" fill="none"/>
    </g>
    <g id="hyundai-automobiles-1" transform="translate(1250.504 1359.133)">
      <path id="Path_17266" data-name="Path 17266" d="M48.427,4.038c3.418,1.87,7.287,5.159,6.883,9.544-.469,4.064-4.257,6.9-7.641,8.609-9.883,4.724-23.762,4.868-33.966.741-3.448-1.435-7.319-3.9-8.769-7.609C3.823,12.276,5.176,9.1,7.449,6.989,12.205,2.668,18.267,1.186,24.5.331A45.9,45.9,0,0,1,44.463,2.314,32.45,32.45,0,0,1,48.427,4.038Z" transform="translate(3.976 0)" fill="#397db7"/>
      <path id="Path_17267" data-name="Path 17267" d="M35.04,17.6H31.034c-.674.039-.859.206-.859,1.024v2.249h4.867V17.6Z" transform="translate(26.436 15.42)" fill="#fff"/>
      <path id="Path_17269" data-name="Path 17269" d="M28.883,18.508a.841.841,0,0,0-.9-.908H24.315v6.133h3.668c.837-.043.9-.544.9-.942Z" transform="translate(21.302 15.419)" fill="#fff"/>
      <path id="Path_17271" data-name="Path 17271" d="M34.285,14.939c.388,2-.66,3.658-1.531,5.272a4.975,4.975,0,0,1-4.482,2.6A45.561,45.561,0,0,1,15.86,20.9a.775.775,0,0,1-.452-.323.537.537,0,0,1,.2-.58c3.563-2.885,7.8-4.223,11.994-5.626a12.19,12.19,0,0,1,4.981-.709A2.166,2.166,0,0,1,34.285,14.939ZM48.971,6.4c2,1.643,3.8,3.885,3.191,6.593-1,4-5.352,6.127-8.818,7.48a26.144,26.144,0,0,1-5.851,1.467c-.129-.015-.34.017-.371-.176l.049-.225a52.213,52.213,0,0,0,7.108-10.769c.9-1.692,1.741-3.433,2.514-5.142a.857.857,0,0,1,.355-.242A4.148,4.148,0,0,1,48.971,6.4ZM20.841,2.138l-.066.242C16.536,7.2,13.748,12.795,11.1,18.355c-.516.484-1.017-.161-1.484-.37-2.353-1.548-4.48-4.047-3.867-7.013.983-3.868,4.964-5.934,8.287-7.335A31.063,31.063,0,0,1,20.215,1.96c.223,0,.514-.03.627.178Zm21.036.775c.242.128.533.176.677.418.129.274-.129.452-.274.628C38.944,6.572,35.124,8.022,31.222,9.3c-1.983.482-3.983,1.355-6.191.871A2.056,2.056,0,0,1,23.757,9.2c-.548-1.516.193-3.1.839-4.416.855-1.66,2.369-3.611,4.465-3.643A46.223,46.223,0,0,1,41.878,2.913Z" transform="translate(4.947 0.997)" fill="#fff"/>
    </g>
  </g>
</svg>
