<svg xmlns="http://www.w3.org/2000/svg" width="114" height="77" viewBox="0 0 114 77">
  <g id="Group_3651" data-name="Group 3651" transform="translate(-1086 -1335)">
    <g id="Rectangle_63" data-name="Rectangle 63" transform="translate(1086 1335)" fill="#fff" stroke="#000" stroke-width="1">
      <rect width="114" height="77" stroke="none"/>
      <rect x="0.5" y="0.5" width="113" height="76" fill="none"/>
    </g>
    <g id="jaguar-cars" transform="translate(1094.275 1340.889)">
      <path id="Path_17264" data-name="Path 17264" d="M151.019,36.307a1.887,1.887,0,0,0,.963-.2,4.05,4.05,0,0,0-.572-.082c-.526.022-.74.217-.743.24s.137.04.353.048" transform="translate(-122.542 -11.941)" fill="#241f20"/>
      <path id="Path_17265" data-name="Path 17265" d="M80.838,25.256a1.262,1.262,0,0,1,.045-.134.479.479,0,0,1,.452-.306,1.135,1.135,0,0,1,.394.049.7.7,0,0,1-.618.365,2.449,2.449,0,0,1-.272.027m48.612,14.1a2.22,2.22,0,0,1-1.272.9,5.561,5.561,0,0,1-2.724-.008,1.5,1.5,0,0,0-.64-.305,4.237,4.237,0,0,1-2.1-1.113c-.411-.382-.863-.862-1.3-1.314a2.673,2.673,0,0,0-1.5-.821,35.344,35.344,0,0,1-3.793-.592,3.829,3.829,0,0,1-1.943-1.722,3.24,3.24,0,0,0-1.208-1.077,2.83,2.83,0,0,1,.634.727c.316.579.467,1,.639,1.3a2.725,2.725,0,0,0,.688.838,2.092,2.092,0,0,0,1.079.47c.42.085,1.853.148,3.083.2a3.066,3.066,0,0,1,2.1.739c.348.294.9,1.132,1.29,1.475a5.942,5.942,0,0,0,1.137.842,4.194,4.194,0,0,0,.821.406.725.725,0,0,1,.325.894c-.159.453-.73.615-1.4.52a5.35,5.35,0,0,1-2.61-1.534,13.47,13.47,0,0,0-1.324-1.039c-1.184-.821-3.966-.753-3.966-.753l-2.039-.013a6.347,6.347,0,0,1-5.82-3.807,5.182,5.182,0,0,0-.385-.575,6.9,6.9,0,0,0-2.249-2.015s1.025.887.922,1.372c-.22,0-.47.011-.768.02-4,.117-4.832-.1-5.464-.231a13.409,13.409,0,0,1-2.724-.916,3.637,3.637,0,0,0-.294-1.805,15.619,15.619,0,0,0,5.929.836s-4.24-.207-6.885-2.315c0,0,.653,2.228.137,3.164,0,0-.7,1.7-4.26.565a9.88,9.88,0,0,0-2.914-.638s-.96.04-1.074.54a.307.307,0,0,0,.188.353s.278.079.147.286a2.121,2.121,0,0,1-.814.754c-.994-.049-.921-.865-.921-.865a1.86,1.86,0,0,1,.2-.691c.625-1.4,2.821-1.6,2.821-1.6a17.083,17.083,0,0,1,4.786.328,6.3,6.3,0,0,1-2.849-1.142,7.472,7.472,0,0,1-1.305-2.456,3.478,3.478,0,0,0,.289,2.347A5.527,5.527,0,0,0,88.9,28.567a6.752,6.752,0,0,0-2.645-1.144.914.914,0,0,1-.632-.546c-.58-1.068-1.237-1.119-1.237-1.119a1.83,1.83,0,0,1,.289,1.05c0,1.118-1.438,1.489-1.438,1.489-1.075,1.069-1.262,1.046-1.472,1.062a.481.481,0,0,1-.365-.2c-.068-.1.045-.194.045-.194A3.32,3.32,0,0,0,81.8,28.7c1.048-.842,1.2-1.272,1.111-1.86-.171-1.173-1.117-1.087-1.117-1.087a.824.824,0,0,0-.665.339,9.859,9.859,0,0,0-.547.843c-.331.546-.626.466-.626.466a.842.842,0,0,1-.628-.3c-.014-.013-.025-.028-.037-.04a.534.534,0,0,1-.038-.641,1.7,1.7,0,0,1,1.317-.87c.1-.006.459-.033.459-.033a2.168,2.168,0,0,0,1.433-.892,2.224,2.224,0,0,0-1.018-.083.963.963,0,0,0-.8.717c-.55.081-.523-.342-.405-.453.093-.109.421-.64,2.528-.956a11.3,11.3,0,0,1,3.1,0c.073.008.144.072.05.182a2.233,2.233,0,0,1-2.283.628s-.023.5,1.344.751a9,9,0,0,1,3.244,1.878,5.429,5.429,0,0,0-2.661-2.354.116.116,0,0,1-.011-.194,3.2,3.2,0,0,1,2.206-.64s4.656.239,7.273,2.971a3.887,3.887,0,0,0-.489-1.116s-.08-.079-.034-.136c0,0,.034-.114.489-.023a35.578,35.578,0,0,1,5.52,1.685s2.892,1.014,4.469,1.668c2.371.982,8.31,3.391,12.061,5.468.67.37,3.459,1.748,3.459,1.748,2.085,1.294,4,2.232,4,2.232a5.021,5.021,0,0,0,3.264.473c.439-.165,1.278-.621,1.6-.3A.485.485,0,0,1,129.45,39.358Zm.47-.733c-.247-.575-1.042-.434-1.042-.434-.364.022-.823.4-1.46.534A4.312,4.312,0,0,1,125,38.542a37.349,37.349,0,0,1-4.28-2.4c-.89-.509-4.185-2.24-7.48-3.9,0,0-3.775-1.935-9.36-4.244,0,0-10.776-4.889-18.527-4.889,0,0-4.015-.05-5.374,1.495a.393.393,0,0,0-.123.443.118.118,0,0,1-.034.111,5.925,5.925,0,0,0-1.085.957.568.568,0,0,0-.051.665,6.118,6.118,0,0,0,.424.647,1.171,1.171,0,0,0,1,.482c.223-.023.23-.079.23-.079a1.068,1.068,0,0,0,.637.248,4.055,4.055,0,0,1-.209-.6.866.866,0,0,1,.057-.358,1.583,1.583,0,0,1,.4-.584.693.693,0,0,1,.764-.043,1.059,1.059,0,0,1,.184,1.255s-.287.5-.553.552l-.074,0a1.7,1.7,0,0,1-.49-.189.515.515,0,0,0,.023.211c.022.1.053.2.079.288l-.07.057a.384.384,0,0,0-.119.419s.208.782.788.782a1.4,1.4,0,0,0,.94-.47,4.631,4.631,0,0,1,2.651-1.346c1.719-.117,4.174,1.643,4.843,2.151a5.245,5.245,0,0,0-3.572.949,2.141,2.141,0,0,0-.875,2.462,1.14,1.14,0,0,0,.585.589,1.291,1.291,0,0,0,.7.1.987.987,0,0,0,.4-.131,2.469,2.469,0,0,0,.711-.585.822.822,0,0,0,.15-.7s-.045-.228.16-.274a3.511,3.511,0,0,1,2.036.431,9.069,9.069,0,0,0,3.4,1.033s2.183.221,2.71-.96a12.808,12.808,0,0,0,3.089.723,29.127,29.127,0,0,0,4.689-.033,10.005,10.005,0,0,1,1.241,0,2.381,2.381,0,0,1,1.751.972c.951,1.543,2.085,4.572,6.729,4.452l2.1-.058a6.679,6.679,0,0,1,3.339.557c.446.239,1.624,1.409,2.35,1.8,2.149,1.448,3.39.775,3.39.775a1.24,1.24,0,0,0,.5-1.609c-.22-.07,2.662.423,3.891-1.191a.925.925,0,0,0,.254-.9Z" transform="translate(-55.876 0)" fill="#241f20"/>
    </g>
  </g>
</svg>
