<svg xmlns="http://www.w3.org/2000/svg" width="114" height="77" viewBox="0 0 114 77">
  <g id="Group_3632" data-name="Group 3632" transform="translate(-5523 372)">
    <g id="Group_3631" data-name="Group 3631">
      <g id="Rectangle_50" data-name="Rectangle 50" transform="translate(5523 -372)" fill="#fff" stroke="#000" stroke-width="1">
        <rect width="114" height="77" stroke="none"/>
        <rect x="0.5" y="0.5" width="113" height="76" fill="none"/>
      </g>
      <path id="Path_17251" data-name="Path 17251" d="M22.506,73.309c0,6.051-2.787,8.36-8.36,8.36-5.653,0-8.122-3.1-8.122-7.882V70.761h6.131V73.23c0,1.672,0,3.264,1.831,3.264,1.752,0,1.672-2.15,1.672-3.1V59.295h6.847V73.309ZM28.637,71.4a2.68,2.68,0,0,1,2.787-2.628A2.518,2.518,0,0,1,33.892,71.4Zm10.59,3.185c0-6.21-2.548-9.714-8.281-9.714-4.618,0-7.644,3.743-7.644,8.361,0,5.335,3.5,8.36,8.122,8.36,3.344,0,6.37-1.592,7.485-5.016H33.734a2.83,2.83,0,0,1-2.309,1.114c-1.752,0-2.707-1.274-2.866-3.1H39.227ZM44.96,71.4a2.68,2.68,0,0,1,2.786-2.628A2.518,2.518,0,0,1,50.215,71.4Zm10.59,3.185c0-6.21-2.548-9.714-8.281-9.714-4.618,0-7.644,3.743-7.644,8.361,0,5.335,3.5,8.36,8.121,8.36,3.265,0,6.37-1.592,7.484-5.016H50.055a2.83,2.83,0,0,1-2.309,1.114c-1.751,0-2.707-1.274-2.866-3.1H55.55Zm5.892-1.354c0-1.911.4-3.9,2.389-3.9s2.468,1.99,2.468,3.9c0,1.831-.478,3.9-2.468,3.9S61.442,75.061,61.442,73.23ZM56.107,86.288H61.6V79.441h.08a4.546,4.546,0,0,0,3.981,2.15c4.857,0,6.131-4.539,6.131-8.281,0-3.981-1.911-8.44-6.051-8.44-2.707,0-3.583,1.115-4.3,2.15V65.267H56.108V86.288h0ZM69.325,83.5a1.117,1.117,0,1,1,2.229,0,1.114,1.114,0,1,1-2.229,0Zm-.319,0a1.414,1.414,0,0,0,1.434,1.354A1.4,1.4,0,0,0,71.793,83.5a1.342,1.342,0,0,0-1.354-1.354A1.362,1.362,0,0,0,69.006,83.5Zm.876.8h.239V83.58h.318l.4.717h.318l-.478-.717c.239,0,.4-.159.4-.478,0-.239-.159-.4-.557-.4h-.637V84.3h0Zm.239-1.434h.4c.159,0,.318.08.318.239,0,.239-.239.318-.4.318h-.318Z" transform="translate(5541.091 -406.291)" fill="#325e9e" fill-rule="evenodd"/>
    </g>
  </g>
</svg>
