<svg xmlns="http://www.w3.org/2000/svg" width="114" height="77" viewBox="0 0 114 77">
  <g id="Group_3650" data-name="Group 3650" transform="translate(-944 -1335)">
    <g id="Rectangle_64" data-name="Rectangle 64" transform="translate(944 1335)" fill="#fff" stroke="#000" stroke-width="1">
      <rect width="114" height="77" stroke="none"/>
      <rect x="0.5" y="0.5" width="113" height="76" fill="none"/>
    </g>
    <g id="kia-4" transform="translate(971 1367)">
      <rect id="Rectangle_1692" data-name="Rectangle 1692" width="59.478" height="13.994" transform="translate(0 0)" fill="none"/>
      <path id="Path_17249" data-name="Path 17249" d="M34.506,12.388c0,.113.036.178.1.178a.305.305,0,0,0,.143-.059L53.287.476a1.784,1.784,0,0,1,1.07-.321h4.074A.988.988,0,0,1,59.478,1.2V8.974a1.956,1.956,0,0,1-1.041,1.986l-4.942,2.974a.339.339,0,0,1-.166.059c-.059,0-.119-.048-.119-.22V4.7c0-.107-.03-.178-.1-.178a.279.279,0,0,0-.143.059l-13.548,8.8a1.817,1.817,0,0,1-1.041.315H29.4A.986.986,0,0,1,28.35,12.65V1.439c0-.083-.036-.161-.107-.161a.291.291,0,0,0-.143.059L19.162,6.7c-.089.059-.113.1-.113.143s.018.071.077.137l6.387,6.381c.083.083.143.149.143.22s-.1.107-.208.107H19.679a1.4,1.4,0,0,1-1.047-.309L14.761,9.515a.166.166,0,0,0-.119-.059.256.256,0,0,0-.119.036l-6.47,3.89a1.784,1.784,0,0,1-1.047.3H1.053A.984.984,0,0,1,0,12.644V5.014A1.947,1.947,0,0,1,1.047,3.027L6.019.042A.256.256,0,0,1,6.149,0c.077,0,.119.077.119.25V10.467c0,.107.024.155.1.155a.356.356,0,0,0,.149-.059L23.313.458A1.818,1.818,0,0,1,24.419.149h9.04a.988.988,0,0,1,1.047,1.041l-.006,11.2Z" fill="#131e29"/>
    </g>
  </g>
</svg>
