<svg xmlns="http://www.w3.org/2000/svg" width="114" height="77" viewBox="0 0 114 77">
  <g id="Group_3602" data-name="Group 3602" transform="translate(-1745 -5702)">
    <g id="Rectangle_1735" data-name="Rectangle 1735" transform="translate(1745 5702)" fill="#fff" stroke="#ebebeb" stroke-width="1">
      <rect width="114" height="77" stroke="none"/>
      <rect x="0.5" y="0.5" width="113" height="76" fill="none"/>
    </g>
    <g id="luxury-vehicle" transform="translate(1769 5731)">
      <path id="Path_41" data-name="Path 41" d="M62.074,39.986c.405-.561,3.166-1.3,5.712-1.68l1.541,3.532a32.5,32.5,0,0,1-4.948-.447c-1.479-.593-2.232-1.145-2.305-1.405Z" transform="translate(-44.568 -36.563)"/>
      <path id="Path_42" data-name="Path 42" d="M54.885,44.877c1.634.84,1.045,6.008.636,8.185-2.032.18-7.315.183-19.606-.415-.007,0-.013-.005-.021-.01-.112-.072-.385-.345-.487-1.313-.179-1.7-2.814-5.628-3.888-7.168,3.2.354,11.311.588,15.717.588h0c.636,0,1.207-.005,1.688-.015,1.963-.042,3.54.049,4.626.111.486.027.862.048,1.108.048.066,0,.146,0,.225-.011Zm-16.058.616H36.005v.671h2.822Z" transform="translate(-10.722 -38.491)"/>
      <path id="Path_43" data-name="Path 43" d="M11.927,54.1l.706.035a.873.873,0,0,0,.477.023c18.646.9,20.593.4,20.918-.14a6.629,6.629,0,0,0,.516-1.424c.647-2.22,1.625-5.574,6.2-5.91A6.7,6.7,0,0,1,46.6,48.849a10.4,10.4,0,0,1,2.095,7.782c-.073,0-.152.01-.216.01-.414,0-.533-.025-.533-.6v-.071c0-3.239-.722-5.609-2.157-7.046a5.593,5.593,0,0,0-4.121-1.564c-.21,0-.426.008-.651.025-6.033.444-5.927,5.305-5.87,7.917a5.422,5.422,0,0,1-.084,1.578c-.546-.055-3.15-.077-6.745-.107-6.629-.056-18.968-.158-19.856-.64-.252-.143-.394-1.055-.519-1.86-.066-.42-.141-.888-.241-1.376A3.757,3.757,0,0,0,10.2,54.02c.308.011.912.041,1.731.082Z" transform="translate(12.428 -39.315)"/>
      <path id="Path_44" data-name="Path 44" d="M1.23,48.963a5.589,5.589,0,0,0,.417-2.531,4.829,4.829,0,0,1,.068-1,.767.767,0,0,0,.235-.069,1.191,1.191,0,0,0,.2.489,1.108,1.108,0,0,0,.934.408,2.023,2.023,0,0,0,.231-.014C4.437,46.119,4.7,44.9,4.989,43.6c.1-.441.2-.9.334-1.335.151-.484.094-.833-.17-1.037-.422-.327-1.239-.036-1.882.286.222-.748.614-1.009,1.662-1.009q.235,0,.511.017c.17.011.349.016.532.016a16.8,16.8,0,0,0,7.363-2.032c1.975-1.056,10.933-2.8,17.417-2.8a15.131,15.131,0,0,1,4.885.591c2.046.754,4.241,1.677,6.177,2.492a38.305,38.305,0,0,0,6.006,2.245c.479.07,1.818.179,3.513.316,3.717.3,11.454.923,12.1,1.49a10.059,10.059,0,0,1,1.168,1.834,5.335,5.335,0,0,1-1.1-.272c-1.151-.4-1.849-.408-2.073-.03-.258.434.269.915.494,1.12a6.03,6.03,0,0,0,3.133,1.642.842.842,0,0,0,.49-.133,1.535,1.535,0,0,0,.147-.121c.243.5.448.877.611,1.175.382.7.473.872.347,1.284a2.5,2.5,0,0,0-1.73-.656.721.721,0,0,0-.5.456c-.272.7.282,1.516.769,2.237a4.075,4.075,0,0,1,.557.977.251.251,0,0,1-.027.225.984.984,0,0,1-.589.258l0,.019c-.134.005-.272.009-.431.009-.765,0-1.387.056-1.9.1A11.175,11.175,0,0,0,60.536,44.8a7.333,7.333,0,0,0-6.407-2.391c-5.043.369-6.142,4.139-6.8,6.39a6.526,6.526,0,0,1-.447,1.268,1.085,1.085,0,0,1-.384.123c.3-1.688,1.125-7.318-.909-8.609-.078-.21-.361-.337-.66-.469-.53-.235-1.373-.64-2.349-1.11-2.051-.988-4.6-2.217-6.138-2.771a20.961,20.961,0,0,0-6.4-.714c-.586,0-1.159.007-1.7.013-.489.006-.954.011-1.383.011-2.639,0-8.173,1.08-8.973,2.142a.7.7,0,0,0-.119.627c.16.573,1.069,1.194,2.7,1.848a2,2,0,0,0,.323.086c1.161,1.618,3.97,5.811,4.134,7.367a3.689,3.689,0,0,0,.306,1.21c-.788-.039-1.374-.068-1.676-.08-2.169-.085-3.17-2.552-3.179-2.577l-.009,0c-.792-1.73-2.3-3.214-5.466-3.214a5.854,5.854,0,0,0-4.483,2.026,8.08,8.08,0,0,0-2,5.411c.063.533.019.658,0,.685a8.275,8.275,0,0,1-.9-.273c-.458-.154-1.027-.344-1.758-.522a11.8,11.8,0,0,0-3.083-.4,3.69,3.69,0,0,1-1.05-.1,1.078,1.078,0,0,1-.642-.6,1.376,1.376,0,0,1,.145-1.208Z" transform="translate(-1.003 -35.707)"/>
      <path id="Path_45" data-name="Path 45" d="M1.824,57.714c-.376-.555-.844-1.247-.7-1.618.262-.1.874.236,1.364.616a1.932,1.932,0,0,0,.025,1.739c.122.285.274.64.18.783a.464.464,0,0,1-.214.146.977.977,0,0,0,0-.468,4.259,4.259,0,0,0-.654-1.2Z" transform="translate(62.925 -42.418)"/>
      <path id="Path_46" data-name="Path 46" d="M95.593,44.73a1.166,1.166,0,0,1-.059.308c-.145.465-.248.936-.349,1.391-.28,1.273-.494,2.053-1.092,2.121-.278.032-.462-.014-.555-.135a1.446,1.446,0,0,1-.04-1.043c.054-.155.1-.326.151-.51a.013.013,0,0,1,0,0h0c.109-.435.2-.944.294-1.509a3.546,3.546,0,0,1,1.65-.617Z" transform="translate(-91.855 -38.675)"/>
      <path id="Path_47" data-name="Path 47" d="M6.01,50.9c-.238.143-1.611-.383-2.785-1.456a2.648,2.648,0,0,1-.229-.231,4.648,4.648,0,0,1,1.137.27,4.9,4.9,0,0,0,1.671.329q.2.4.415.847C6.218,50.677,6.189,50.779,6.01,50.9Z" transform="translate(58.156 -40.158)"/>
      <path id="Path_48" data-name="Path 48" d="M36.8,37.926c.542-.007,1.112-.013,1.7-.013a20.412,20.412,0,0,1,6.172.675c1.5.543,4.038,1.764,6.076,2.745.614.3,1.175.566,1.641.785l-.061,0c-1.1-.062-2.693-.153-4.678-.112-.477.011-1.043.015-1.674.015-2.586,0-6.16-.079-9.346-.2l-1.646-3.867c.146-.005.292-.011.428-.011C35.837,37.937,36.305,37.932,36.8,37.926Z" transform="translate(-9.453 -36.434)"/>
      <path id="Path_49" data-name="Path 49" d="M62.1,41.822l-.923-.041-1.6-3.661c.309-.038.614-.071.9-.1Z" transform="translate(-35.675 -36.471)"/>
      <ellipse id="Ellipse_12" data-name="Ellipse 12" cx="4.636" cy="4.636" rx="4.636" ry="4.636" transform="translate(9.262 9.896)"/>
      <ellipse id="Ellipse_13" data-name="Ellipse 13" cx="4.636" cy="4.636" rx="4.636" ry="4.636" transform="translate(49.253 9.896)"/>
    </g>
  </g>
</svg>
