<svg xmlns="http://www.w3.org/2000/svg" width="114" height="77" viewBox="0 0 114 77">
  <g id="Group_3644" data-name="Group 3644" transform="translate(-1086 -1083)">
    <g id="Group_3643" data-name="Group 3643">
      <g id="Rectangle_57" data-name="Rectangle 57" transform="translate(1086 1083)" fill="#fff" stroke="#000" stroke-width="1">
        <rect width="114" height="77" stroke="none"/>
        <rect x="0.5" y="0.5" width="113" height="76" fill="none"/>
      </g>
    </g>
    <path id="Mini__marque_-Logo.wine" data-name="Mini_(marque)-Logo.wine" d="M34.484,0A15.12,15.12,0,0,0,21.741,6.985L0,6.987,2.164,9.151H20.61a15.121,15.121,0,0,0-.83,2.521H4.686L6.824,13.81H19.43q-.062.654-.067,1.311.006.606.061,1.211H9.345l2.138,2.138h8.269a15.122,15.122,0,0,0,.8,2.521H14l2.164,2.164H21.7a15.083,15.083,0,0,0,25.578,0H52.8l2.164-2.164H48.419a15.121,15.121,0,0,0,.8-2.521h8.269l2.138-2.138H49.545q.055-.6.061-1.211-.005-.657-.067-1.311H62.145l2.138-2.138H49.188a15.121,15.121,0,0,0-.83-2.521H66.8l2.164-2.164H47.229A15.121,15.121,0,0,0,34.484,0Zm0,2.05A13.072,13.072,0,1,1,21.412,15.121,13.072,13.072,0,0,1,34.484,2.05Zm-10.4,9.684v6.776H25.5V13.175l1.491,5.334h1.465l1.5-5.334v5.334h1.413V11.733H29.081l-1.352,4.622-1.367-4.622Zm8.752,0v6.776h1.521V11.733Zm2.98,0v6.776h1.413V14.091l3.037,4.418h1.526V11.733H40.381v4.525L37.3,11.733Zm7.544,0v6.776h1.521V11.733Z" transform="translate(1109 1106)" fill="#120a08"/>
  </g>
</svg>
