<svg xmlns="http://www.w3.org/2000/svg" width="114" height="77" viewBox="0 0 114 77">
  <g id="Group_3601" data-name="Group 3601" transform="translate(-1887 -5828)">
    <g id="Rectangle_1734" data-name="Rectangle 1734" transform="translate(1887 5828)" fill="#fff" stroke="#ebebeb" stroke-width="1">
      <rect width="114" height="77" stroke="none"/>
      <rect x="0.5" y="0.5" width="113" height="76" fill="none"/>
    </g>
    <g id="car-of-hatchback-model" transform="translate(1913 5854)">
      <g id="Group_63" data-name="Group 63" transform="translate(0 0)">
        <path id="Path_32" data-name="Path 32" d="M12.961,52.934A4.967,4.967,0,0,1,17.929,57.9a4.817,4.817,0,0,1-.044.625,4.965,4.965,0,0,1-9.872-.2c-.011-.141-.022-.28-.022-.425A4.967,4.967,0,0,1,12.961,52.934Zm2.488,3.1-1.014,1.014a1.684,1.684,0,0,1,.18.437h1.429A3.107,3.107,0,0,0,15.449,56.03Zm.6,2.311H14.61a1.7,1.7,0,0,1-.18.431l1.016,1.015A3.109,3.109,0,0,0,16.049,58.34ZM13.39,60.989a3.083,3.083,0,0,0,1.441-.6l-1.01-1.01a1.689,1.689,0,0,1-.431.174Zm0-4.74a1.649,1.649,0,0,1,.439.183l1.012-1.013a3.09,3.09,0,0,0-1.451-.6Zm-.861-1.43a3.081,3.081,0,0,0-1.451.6l1.012,1.012a1.649,1.649,0,0,1,.439-.183Zm0,6.169V59.555a1.693,1.693,0,0,1-.431-.175l-1.011,1.011A3.117,3.117,0,0,0,12.529,60.988Zm-2.059-1.2,1.019-1.02a1.694,1.694,0,0,1-.185-.43H9.877A3.121,3.121,0,0,0,10.47,59.79ZM11.3,57.48a1.725,1.725,0,0,1,.18-.437L10.47,56.028a3.1,3.1,0,0,0-.6,1.45Z" transform="translate(39.875 -38.495)"/>
        <path id="Path_33" data-name="Path 33" d="M78.669,52.934A4.967,4.967,0,0,1,83.637,57.9a4.817,4.817,0,0,1-.044.625,4.964,4.964,0,0,1-9.872-.2c-.011-.141-.022-.28-.022-.425A4.966,4.966,0,0,1,78.669,52.934Zm2.489,3.1-1.015,1.014a1.662,1.662,0,0,1,.18.437h1.429A3.106,3.106,0,0,0,81.158,56.03Zm.6,2.311H80.318a1.7,1.7,0,0,1-.18.431l1.016,1.015A3.111,3.111,0,0,0,81.757,58.34ZM79.1,60.989a3.083,3.083,0,0,0,1.441-.6l-1.01-1.01a1.689,1.689,0,0,1-.431.174Zm0-4.74a1.636,1.636,0,0,1,.439.183l1.013-1.013a3.093,3.093,0,0,0-1.451-.6Zm-.86-1.43a3.076,3.076,0,0,0-1.451.6L77.8,56.433a1.654,1.654,0,0,1,.439-.183Zm0,6.169V59.555a1.7,1.7,0,0,1-.431-.175L76.8,60.391A3.111,3.111,0,0,0,78.238,60.988Zm-2.059-1.2L77.2,58.77a1.7,1.7,0,0,1-.185-.43H75.585A3.108,3.108,0,0,0,76.179,59.79Zm.833-2.311a1.726,1.726,0,0,1,.18-.437l-1.014-1.014a3.1,3.1,0,0,0-.6,1.45Z" transform="translate(-67.661 -38.495)"/>
        <path id="Path_34" data-name="Path 34" d="M.429,43.11l.955-.912,0-2.878a3.044,3.044,0,0,1,.785-2.044L5.7,33.367v0a1.712,1.712,0,0,1,1.4-1.648c4.2-.789,17.218-2.828,27.525-.059a71.322,71.322,0,0,1,12.841,5.154S58.7,38.244,61.4,41.755a8.41,8.41,0,0,1,1.474,4.274,4.009,4.009,0,0,1-3.11,4.313l-1.04.234c.009-.057.022-.112.029-.171a5.8,5.8,0,0,0,.052-.749,5.968,5.968,0,0,0-11.936,0c0,.173.011.339.025.508a5.77,5.77,0,0,0,.083.6l-30.124.061c.027-.139.055-.277.073-.419a5.8,5.8,0,0,0,.052-.749,5.968,5.968,0,0,0-11.936,0c0,.173.011.339.025.508a5.743,5.743,0,0,0,.1.684H4.756L3.043,49.91A5.792,5.792,0,0,1,.036,45.049L0,44.158A1.383,1.383,0,0,1,.429,43.11ZM41.54,37.217l-.461-1.842s-6.977-3.65-18.655-3.253v5.442l18.7,1.476A3.052,3.052,0,0,1,41.54,37.217Zm-29.968-.508,8.794.694V32.237a57.843,57.843,0,0,0-9.408,1.481,1.012,1.012,0,0,0-.535,1.637Z" transform="translate(-0.001 -30.252)"/>
      </g>
    </g>
  </g>
</svg>
