<svg xmlns="http://www.w3.org/2000/svg" width="114" height="77" viewBox="0 0 114 77">
  <g id="Group_3603" data-name="Group 3603" transform="translate(-1887 -5702)">
    <g id="Rectangle_1733" data-name="Rectangle 1733" transform="translate(1887 5702)" fill="#fff" stroke="#ebebeb" stroke-width="1">
      <rect width="114" height="77" stroke="none"/>
      <rect x="0.5" y="0.5" width="113" height="76" fill="none"/>
    </g>
    <g id="sports-car" transform="translate(1911.82 5714.825)">
      <g id="Group_62" data-name="Group 62" transform="translate(0 15.825)">
        <g id="Group_61" data-name="Group 61">
          <path id="Path_31" data-name="Path 31" d="M64.936,27.961c-.733-2.537-6.537-4.767-7.691-5.189a38.034,38.034,0,0,0-7.469-1.941,88.314,88.314,0,0,0-11.482-4.487,50.493,50.493,0,0,0-9.108-.519A63.422,63.422,0,0,0,16.673,17.46c-1.989.4-3.866.783-5.533.989-4.789.591-8.4.646-8.431.646a.709.709,0,0,0-.648.446C1.976,19.752,0,24.726,0,27c0,2.461,3.435,4.935,3.827,5.211a.7.7,0,0,0,.406.128H5.663a5.974,5.974,0,0,0,10.168,0h29.46a5.789,5.789,0,0,0,9.959,0h9.065a.711.711,0,0,0,.677-.493A7.294,7.294,0,0,0,64.936,27.961ZM47.5,21.327a26.393,26.393,0,0,1-4.079.5l.038-.07a.713.713,0,0,0-.384-1.016l-2.135-.755a.707.707,0,0,0-.931.523l-.278,1.342a119.767,119.767,0,0,1-12.077-1.215L29.6,17.247a51.449,51.449,0,0,1,8.343.471A90.1,90.1,0,0,1,47.5,21.327ZM16.954,18.851A68.916,68.916,0,0,1,27.926,17.3l-1.793,3.121-2.425-.344c-2.474-.352-5-.713-7.618-1.052Zm-6.208,14.9a4.6,4.6,0,1,1,4.6-4.6A4.6,4.6,0,0,1,10.746,33.756Zm39.523,0a4.414,4.414,0,1,1,4.414-4.414A4.418,4.418,0,0,1,50.269,33.756Z" transform="translate(0 -15.825)"/>
          <circle id="Ellipse_10" data-name="Ellipse 10" cx="2.928" cy="2.928" r="2.928" transform="translate(7.818 10.407)"/>
          <circle id="Ellipse_11" data-name="Ellipse 11" cx="2.928" cy="2.928" r="2.928" transform="translate(47.341 10.59)"/>
        </g>
      </g>
    </g>
  </g>
</svg>
