<svg xmlns="http://www.w3.org/2000/svg" width="114" height="77" viewBox="0 0 114 77">
  <g id="Group_3600" data-name="Group 3600" transform="translate(-1745 -5828)">
    <g id="Rectangle_1736" data-name="Rectangle 1736" transform="translate(1745 5828)" fill="#fff" stroke="#ebebeb" stroke-width="1">
      <rect width="114" height="77" stroke="none"/>
      <rect x="0.5" y="0.5" width="113" height="76" fill="none"/>
    </g>
    <g id="sports-car-top-down-silhouette" transform="translate(1765 5856)">
      <g id="Group_65" data-name="Group 65" transform="translate(0 0)">
        <path id="Path_38" data-name="Path 38" d="M.092,188.5a8.915,8.915,0,0,1,1.573-3.656c-.264-.416-.387-.732-.254-.985a.623.623,0,0,1,.58-.269,5.924,5.924,0,0,1,.744.077,8.3,8.3,0,0,0,2.5.046,37.183,37.183,0,0,1,6.31-.486c.6,0,1.168.013,1.674.036,1.9.079,5.315-.836,9.7-2.023l1.642-.443a21.2,21.2,0,0,1,5-.883,2.7,2.7,0,0,1,1.125.173,1.288,1.288,0,0,1,.367-.057,1.08,1.08,0,0,1,1.006.955.792.792,0,0,1,.692.343.822.822,0,0,1,.777.348l.041.069v2.994c1.062.264,6.781.6,11.121.8a1.591,1.591,0,0,1-.313-.42,1.819,1.819,0,0,1-.114-1.28l-4.787-2.1-.035-.143a1.675,1.675,0,0,1,.264-1.319,1.787,1.787,0,0,1,1.486-.582,4.55,4.55,0,0,1,.661.052c2.471.364,12.392,4.986,13.315,5.418a33.938,33.938,0,0,1,19.124,6.6l.1.09v3.356l-.062.079c-1.436,1.869-6.824,2.7-11.791,2.888.078-.1.159-.2.232-.31s.123-.2.184-.3a6.717,6.717,0,1,0-11.84-.648c.048.1.1.205.147.3s.116.2.176.3c-5.076-.239-15.127-.278-24.26-.313-3.282-.014-6.49-.026-9.393-.047.052-.1.095-.2.143-.3s.1-.2.142-.3a7.127,7.127,0,1,0-13.332-.624c.039.123.087.244.133.364s.09.232.14.346A6.584,6.584,0,0,1,1.453,194.7c-1.688-1.93-1.488-4.531-1.392-5.783C.077,188.755.087,188.611.092,188.5Z" transform="translate(0 -179.698)"/>
        <path id="Path_39" data-name="Path 39" d="M82.55,249.5a5.491,5.491,0,0,1-4.24-2.02c-.088-.105-.182-.2-.261-.316s-.132-.2-.2-.308a5.532,5.532,0,1,1,8.937.624c-.082.1-.157.207-.246.3-.1.108-.217.205-.329.3A5.491,5.491,0,0,1,82.55,249.5Z" transform="translate(-25.339 -229.553)"/>
        <path id="Path_40" data-name="Path 40" d="M387.3,242.554c-.06.1-.113.2-.178.3a5.913,5.913,0,0,1-9.9-.252c-.066-.105-.119-.22-.178-.33s-.127-.216-.181-.333a5.874,5.874,0,0,1-.555-2.47,5.939,5.939,0,1,1,11.877,0,5.874,5.874,0,0,1-.728,2.793C387.406,242.359,387.357,242.459,387.3,242.554Z" transform="translate(-370.726 -225.383)"/>
      </g>
    </g>
  </g>
</svg>
