<svg xmlns="http://www.w3.org/2000/svg" width="114" height="77" viewBox="0 0 114 77">
  <g id="Group_3647" data-name="Group 3647" transform="translate(-944 -1209)">
    <g id="Group_3646" data-name="Group 3646">
      <g id="Rectangle_61" data-name="Rectangle 61" transform="translate(944 1209)" fill="#fff" stroke="#000" stroke-width="1">
        <rect width="114" height="77" stroke="none"/>
        <rect x="0.5" y="0.5" width="113" height="76" fill="none"/>
      </g>
    </g>
    <path id="toyota-center" d="M97.688,49.283C88.019,47.8,80.726,43.422,77.755,37.29c-3.781-7.806.351-16.044,10.264-20.392,6.1-2.674,14.423-3.619,22.283-2.593,12.424,1.675,21.067,8.724,21.067,17.178,0,8.13-7.239,14.828-18.772,17.34a72.428,72.428,0,0,1-14.909.459Zm3.727-2.566c-2.269-1.945-3.646-6.023-4-11.965L97.2,31.4l-2.566-.513a23.766,23.766,0,0,1-8-3.079,7.72,7.72,0,0,1-3.079-3.538L83.1,23.3l-.891,1.269A11.632,11.632,0,0,0,81.7,36.507c2.539,5.159,9.346,9.4,16.989,10.642,1.107.162,2.215.351,2.431.405C102.5,47.824,102.55,47.662,101.416,46.717Zm9.237.108c7.239-1.648,12.938-5.483,15.341-10.318a11.8,11.8,0,0,0,1.378-7.482A12.343,12.343,0,0,0,125.1,24l-.567-.594-.594,1.269c-1.378,2.89-5.267,5.078-11.074,6.266l-2.161.432-.324,3.619c-.513,6.158-1.54,9.318-3.754,11.506l-1.134,1.161,1.377-.162c.783-.081,2.485-.378,3.781-.675Zm-5.1-5.942c1.35-1.377,2.593-5.294,2.593-8.238v-.891H99.687l.162,2.107c.216,3.025,1.107,5.618,2.35,6.86C103.5,42.017,104.36,42.071,105.548,40.883Zm2.242-13.559a16.908,16.908,0,0,0-1.269-4.457c-.594-1.188-1.972-2.458-2.674-2.458-1.242,0-2.674,2.026-3.376,4.754a17.86,17.86,0,0,0-.432,1.945c0,.162.513.351,1.161.405A48.431,48.431,0,0,0,107.79,27.324Zm-9.831-2.593c.783-4.132,2.215-7,4.078-8.13l.837-.513H101.5c-3.376,0-9.588,1.567-11.587,2.917a6.192,6.192,0,0,0-1.594,1.675,1.663,1.663,0,0,0-.081,1.945c.837,1.972,4.051,3.565,9.1,4.511A11.116,11.116,0,0,0,97.958,24.731ZM114.785,26c3-1.08,4.97-2.755,4.97-4.24,0-1.107-1.323-2.512-3.16-3.376a29.079,29.079,0,0,0-9.048-2.161l-2.512-.189.837.567c2.026,1.35,3.3,4.268,4.322,9.912.108.567.135.567,1.783.216A25.96,25.96,0,0,0,114.785,26Z" transform="translate(897.63 1216.1)" fill="#ca222a"/>
  </g>
</svg>
