<svg xmlns="http://www.w3.org/2000/svg" width="114" height="77" viewBox="0 0 114 77">
  <g id="Group_3645" data-name="Group 3645" transform="translate(-1228 -1083)">
    <g id="Rectangle_56" data-name="Rectangle 56" transform="translate(1228 1083)" fill="#fff" stroke="#000" stroke-width="1">
      <rect width="114" height="77" stroke="none"/>
      <rect x="0.5" y="0.5" width="113" height="76" fill="none"/>
    </g>
    <g id="volkswagen-3" transform="translate(1242.742 1079.742)">
      <path id="Path_17214" data-name="Path 17214" d="M41.891,16.258A25.622,25.622,0,1,1,16.258,41.891,25.664,25.664,0,0,1,41.891,16.258Z" fill="#295ca7" fill-rule="evenodd"/>
      <path id="Path_17215" data-name="Path 17215" d="M48.857,26.433A22.358,22.358,0,1,1,26.5,48.812,22.422,22.422,0,0,1,48.857,26.433ZM33.888,36.783l8.02,20.8,2.939-7.6h7.7l2.939,7.6,8.1-21.056a19.318,19.318,0,0,0-5.081-4.324L52.887,47.7H44.951L39.3,32.143A19.46,19.46,0,0,0,33.888,36.783ZM66.827,42.01,57.694,65.837A19.278,19.278,0,0,0,66.827,42.01ZM53.706,67.39l-.062-.483L48.688,54.06,43.734,66.908l-.021.4A18.909,18.909,0,0,0,48.857,68,19.413,19.413,0,0,0,53.706,67.39ZM39.64,65.627l-8.9-23.2a18.865,18.865,0,0,0-1.092,6.382A19.17,19.17,0,0,0,39.64,65.627ZM48.857,29.6a19.117,19.117,0,0,1,4.912.63L48.92,43.647l-4.87-13.436a19.1,19.1,0,0,1,4.807-.609Z" transform="translate(-6.966 -6.921)" fill="#fff" fill-rule="evenodd"/>
    </g>
  </g>
</svg>
