<svg xmlns="http://www.w3.org/2000/svg" width="114" height="77" viewBox="0 0 114 77">
  <g id="Group_3634" data-name="Group 3634" transform="translate(-1086 -831)">
    <g id="Group_3633" data-name="Group 3633">
      <g id="Rectangle_51" data-name="Rectangle 51" transform="translate(1086 831)" fill="#fff" stroke="#000" stroke-width="1">
        <rect width="114" height="77" stroke="none"/>
        <rect x="0.5" y="0.5" width="113" height="76" fill="none"/>
      </g>
      <path id="Volvo-Logo.wine" d="M2.661,2.147l5.207,9.765h6.407L19.481,2.13l2.66-.017L22.147.524H14.188V2.119h2.12L12.631,9.061,8.654,2.143l2.9-.013L11.549.524H0V2.147Zm51.348,0,5.207,9.765h6.407L70.83,2.13l2.66-.017,0-1.589H65.537V2.119h2.119L63.979,9.061,60,2.143l2.9-.013L62.9.524H51.349V2.147ZM38.258.524V2.147h2.66l0,7.972h-2.8V11.9l2.806.016H54.207v-5.3h-1.73a3.549,3.549,0,0,1-3.555,3.511c-.94,0-2.76,0-2.76,0V2.143l2.62-.013,0-1.606H38.258Zm-9.073,9.928c-1.594,0-2.886-1.909-2.886-4.266s1.292-4.268,2.886-4.268S32.07,3.83,32.07,6.187,30.778,10.453,29.184,10.453ZM29.3.2C24.78.2,21.114,2.89,21.114,6.21s3.665,6.013,8.187,6.013S37.489,9.53,37.489,6.21,33.823.2,29.3.2ZM80.534,10.423c-1.594,0-2.885-1.941-2.885-4.337S78.94,1.75,80.534,1.75s2.885,1.942,2.885,4.336S82.128,10.423,80.534,10.423ZM80.652,0c-4.523,0-8.187,2.736-8.187,6.111s3.664,6.11,8.187,6.11,8.187-2.736,8.187-6.11S85.173,0,80.652,0Z" transform="translate(1098.581 863.389)" fill="#0d3896" fill-rule="evenodd"/>
    </g>
  </g>
</svg>
