<svg xmlns="http://www.w3.org/2000/svg" width="40" height="40" viewBox="0 0 40 40">
  <g id="Group_3619" data-name="Group 3619" transform="translate(-861 -321)">
    <g id="Group_3618" data-name="Group 3618">
      <g id="freezer" transform="translate(868 328)">
        <g id="Group_29" data-name="Group 29">
          <path id="Path_10" data-name="Path 10" d="M26.77,13.385a1.832,1.832,0,0,0-1.83-1.83h-.355l.883-.883L24.36,9.563l-1.992,1.992H19.66a6.5,6.5,0,0,0-.545-1.312L21.03,8.328h2.818V6.759H22.6l.251-.251A1.83,1.83,0,0,0,20.262,3.92l-.251.251V2.922H18.442V5.74L16.527,7.656a6.5,6.5,0,0,0-1.312-.545V4.4l1.992-1.992L16.1,1.3l-.883.883V1.83a1.83,1.83,0,1,0-3.66,0v.355L10.672,1.3,9.563,2.411,11.555,4.4V7.111a6.5,6.5,0,0,0-1.312.545L8.328,5.74V2.922H6.759V4.171L6.508,3.92A1.83,1.83,0,1,0,3.92,6.508l.251.251H2.922V8.328H5.74l1.916,1.916a6.5,6.5,0,0,0-.545,1.312H4.4L2.411,9.563,1.3,10.672l.883.883H1.83a1.83,1.83,0,1,0,0,3.66h.355L1.3,16.1l1.109,1.109L4.4,15.215H7.111a6.5,6.5,0,0,0,.545,1.312L5.74,18.442H2.922v1.569H4.171l-.251.251A1.83,1.83,0,0,0,6.508,22.85l.251-.251v1.249H8.328V21.03l1.916-1.916a6.5,6.5,0,0,0,1.312.545v2.707L9.563,24.36l1.109,1.109.883-.883v.355a1.83,1.83,0,0,0,3.66,0v-.355l.883.883,1.109-1.109-1.992-1.992V19.66a6.5,6.5,0,0,0,1.312-.545l1.916,1.916v2.818h1.569V22.6l.251.251a1.83,1.83,0,0,0,2.588-2.588l-.251-.251h1.249V18.442H21.03l-1.916-1.916a6.5,6.5,0,0,0,.545-1.312h2.707l1.992,1.992L25.469,16.1l-.883-.883h.355A1.832,1.832,0,0,0,26.77,13.385Zm-13.385,1.83a1.83,1.83,0,1,1,1.83-1.83A1.832,1.832,0,0,1,13.385,15.215Z" fill="#fff"/>
        </g>
      </g>
      <g id="Rectangle_28" data-name="Rectangle 28" transform="translate(861 321)" fill="none" stroke="#3e454c" stroke-width="0.5">
        <rect width="40" height="40" stroke="none"/>
        <rect x="0.25" y="0.25" width="39.5" height="39.5" fill="none"/>
      </g>
    </g>
  </g>
</svg>
