<svg xmlns="http://www.w3.org/2000/svg" width="40" height="40" viewBox="0 0 40 40">
  <g id="Group_3620" data-name="Group 3620" transform="translate(-913 -321)">
    <g id="Rectangle_23" data-name="Rectangle 23" transform="translate(913 321)" fill="none" stroke="#3e454c" stroke-width="0.5">
      <rect width="40" height="40" stroke="none"/>
      <rect x="0.25" y="0.25" width="39.5" height="39.5" fill="none"/>
    </g>
    <g id="Group_40" data-name="Group 40" transform="translate(3 19)">
      <circle id="Ellipse_9" data-name="Ellipse 9" cx="1.781" cy="1.781" r="1.781" transform="translate(921.49 329.183)" fill="#fff"/>
      <path id="Path_11" data-name="Path 11" d="M9.777,29.378l.283-.17a3.227,3.227,0,0,0,1.5-3.393l-.6-3.017a5.68,5.68,0,0,0-.166-.638,5.794,5.794,0,0,0-.645-1.314L7.738,17.063a4.126,4.126,0,0,0-2.016-1.871A2.435,2.435,0,0,0,4.837,15h-.13a2.446,2.446,0,0,0-1.421.485l-.149.112L6.878,29.81a2.547,2.547,0,0,1,2.9-.432Z" transform="translate(914.921 299.131)" fill="#fff"/>
      <path id="Path_12" data-name="Path 12" d="M3.428,7.275h1.7a.638.638,0,0,0,.57-.923c-.007-.015-.014-.03-.02-.046L4.554,3.218A.425.425,0,0,0,4.182,3H3.428A.428.428,0,0,0,3,3.428v3.42a.428.428,0,0,0,.428.428Z" transform="translate(915 306)" fill="#fff"/>
      <path id="Path_13" data-name="Path 13" d="M17,60v.855H29.825V60H17Z" transform="translate(906.985 273.37)" fill="#fff"/>
      <path id="Path_14" data-name="Path 14" d="M32.2,49.3a9.47,9.47,0,0,0-3.455-.24l-8.076.628a2.554,2.554,0,0,1-.209,3.158H31.784A1.808,1.808,0,0,0,32.2,49.3Z" transform="translate(905.004 279.666)" fill="#fff"/>
      <path id="Path_15" data-name="Path 15" d="M33.848,14.97a2.811,2.811,0,0,0,1.786-.7l2.057-5c0-.1.005-.2.005-.295C37.7,5.685,35.969,3,33.848,3S30,5.685,30,8.985s1.726,5.985,3.848,5.985Z" transform="translate(899.543 306)" fill="#fff"/>
      <path id="Path_16" data-name="Path 16" d="M46.222,21.322l2.666-6.475-.944-.472-2.666,6.475Z" transform="translate(890.796 299.487)" fill="#fff"/>
      <path id="Path_17" data-name="Path 17" d="M50.567,23.566l.739-.123,1.118-2.61-.373-.871Z" transform="translate(887.769 296.289)" fill="#fff"/>
      <path id="Path_18" data-name="Path 18" d="M55.444,24.52l-.421.982,2.555,1.154V25.434Z" transform="translate(885.218 293.68)" fill="#fff"/>
    </g>
  </g>
</svg>
