<svg xmlns="http://www.w3.org/2000/svg" width="34" height="34" viewBox="0 0 34 34">
  <g id="Group_3619" data-name="Group 3619" transform="translate(-3032 304)">
    <g id="Group_3618" data-name="Group 3618" transform="translate(1990 -317)">
      <g id="Group_3617" data-name="Group 3617">
        <g id="Group_3616" data-name="Group 3616">
          <g id="Group_3615" data-name="Group 3615">
            <g id="Group_3614" data-name="Group 3614">
              <g id="Group_3613" data-name="Group 3613">
                <g id="Group_3612" data-name="Group 3612">
                  <g id="Group_3611" data-name="Group 3611">
                    <g id="Group_3610" data-name="Group 3610">
                      <g id="Group_3609" data-name="Group 3609">
                        <g id="Group_3608" data-name="Group 3608">
                          <g id="Group_3607" data-name="Group 3607">
                            <g id="Group_3606" data-name="Group 3606">
                              <g id="Group_3605" data-name="Group 3605">
                                <g id="Group_3599" data-name="Group 3599">
                                  <g id="Group_3604" data-name="Group 3604">
                                    <g id="Group_3598" data-name="Group 3598">
                                      <g id="Group_3597" data-name="Group 3597">
                                        <g id="Group_3596" data-name="Group 3596">
                                          <path id="Path_17293" data-name="Path 17293" d="M17,0A17,17,0,1,1,0,17,17,17,0,0,1,17,0Z" transform="translate(1042 13)" fill="#e6483d"/>
                                        </g>
                                      </g>
                                    </g>
                                  </g>
                                </g>
                              </g>
                            </g>
                          </g>
                        </g>
                      </g>
                    </g>
                  </g>
                </g>
              </g>
            </g>
          </g>
        </g>
      </g>
      <g id="Group_3603" data-name="Group 3603" transform="translate(0.346 0.427)">
        <g id="Group_3602" data-name="Group 3602">
          <g id="Group_3601" data-name="Group 3601">
            <g id="Group_3600" data-name="Group 3600">
              <path id="person_FILL0_wght500_GRAD0_opsz48" d="M15.355,15.526a3.5,3.5,0,0,1-3.663-3.663A3.5,3.5,0,0,1,15.355,8.2a3.5,3.5,0,0,1,3.663,3.663,3.5,3.5,0,0,1-3.663,3.663ZM7.7,23.345V21a2.729,2.729,0,0,1,.47-1.608,3.081,3.081,0,0,1,1.2-1.021A18.2,18.2,0,0,1,12.42,17.31a12.439,12.439,0,0,1,2.935-.352,11.917,11.917,0,0,1,2.923.364,19.2,19.2,0,0,1,3.041,1.068,2.869,2.869,0,0,1,1.221,1A2.729,2.729,0,0,1,23.009,21v2.348Zm1.6-1.6H21.413V21.02a1.286,1.286,0,0,0-.223-.716,1.414,1.414,0,0,0-.552-.5,12.745,12.745,0,0,0-2.712-.974,11.985,11.985,0,0,0-2.571-.27,12.313,12.313,0,0,0-2.595.27,12.167,12.167,0,0,0-2.712.974A1.413,1.413,0,0,0,9.3,21.02Zm6.058-7.819a2.007,2.007,0,0,0,2.066-2.066,2.067,2.067,0,1,0-4.133,0,2.007,2.007,0,0,0,2.066,2.066ZM15.355,11.863ZM15.355,21.748Z" transform="translate(1043.3 13.8)" fill="#fff"/>
            </g>
          </g>
        </g>
      </g>
    </g>
  </g>
</svg>
