<svg xmlns="http://www.w3.org/2000/svg" width="40" height="40" viewBox="0 0 40 40">
  <g id="Group_3622" data-name="Group 3622" transform="translate(-1016 -321)">
    <g id="Rectangle_25" data-name="Rectangle 25" transform="translate(1016 321)" fill="none" stroke="#3e454c" stroke-width="0.5">
      <rect width="40" height="40" stroke="none"/>
      <rect x="0.25" y="0.25" width="39.5" height="39.5" fill="none"/>
    </g>
    <g id="_595860072" transform="translate(1023.712 328)">
      <path id="_595862520" d="M8.188,4.75H4.675V8.263A3.834,3.834,0,0,0,8.188,4.75Z" transform="translate(13.055 13.629)" fill="#fff" fill-rule="evenodd"/>
      <path id="_595862616" d="M3.72,4.75A3.834,3.834,0,0,0,7.233,8.263V4.75Z" transform="translate(9.891 13.629)" fill="#fff" fill-rule="evenodd"/>
      <path id="_595861944" d="M10.59,4.75a6.235,6.235,0,0,1-5.916,5.916v.929A7.163,7.163,0,0,0,11.519,4.75H10.59Z" transform="translate(13.055 13.629)" fill="#fff" fill-rule="evenodd"/>
      <path id="_595861464" d="M3.877,9.868A6.235,6.235,0,0,1,9.793,3.952V3.023A7.163,7.163,0,0,0,2.948,9.868h.929Z" transform="translate(7.331 7.905)" fill="#fff" fill-rule="evenodd"/>
      <path id="_595861272" d="M9.793,10.666A6.235,6.235,0,0,1,3.877,4.75H2.948a7.164,7.164,0,0,0,6.845,6.845v-.929Z" transform="translate(7.331 13.629)" fill="#fff" fill-rule="evenodd"/>
      <path id="_595861416" d="M4.675,10.06a5.629,5.629,0,0,0,5.31-5.31H8.795a4.44,4.44,0,0,1-4.12,4.12v1.19Z" transform="translate(13.055 13.629)" fill="#fff" fill-rule="evenodd"/>
      <path id="_595861896" d="M3.3,4.75a5.629,5.629,0,0,0,5.31,5.31V8.87a4.44,4.44,0,0,1-4.12-4.12H3.3Z" transform="translate(8.511 13.629)" fill="#fff" fill-rule="evenodd"/>
      <path id="_595861608" d="M8.614,3.379A5.629,5.629,0,0,0,3.3,8.689h1.19a4.44,4.44,0,0,1,4.12-4.12V3.379Z" transform="translate(8.511 9.084)" fill="#fff" fill-rule="evenodd"/>
      <path id="_595860576" d="M6.927,4.115,4.793,6.249h3a3.81,3.81,0,0,0-.866-2.134Z" transform="translate(13.449 11.524)" fill="#fff" fill-rule="evenodd"/>
      <path id="_595861008" d="M6.229,3.82l-.842.842A4.413,4.413,0,0,1,6.431,7.225h1.19a5.6,5.6,0,0,0-1.392-3.4Z" transform="translate(15.419 10.548)" fill="#fff" fill-rule="evenodd"/>
      <path id="_595861056" d="M6.339,3.569l-.657.657A6.2,6.2,0,0,1,7.251,8.059H8.18a7.125,7.125,0,0,0-1.841-4.49Z" transform="translate(16.395 9.714)" fill="#fff" fill-rule="evenodd"/>
      <path id="_595860960" d="M8.6,5.6l.656-.656A7.128,7.128,0,0,0,4.675,3.023v.929A6.2,6.2,0,0,1,8.6,5.6Z" transform="translate(13.055 7.905)" fill="#fff" fill-rule="evenodd"/>
      <path id="_595860936" d="M7.329,5.692l.84-.84A5.6,5.6,0,0,0,4.675,3.379v1.19A4.416,4.416,0,0,1,7.329,5.692Z" transform="translate(13.055 9.084)" fill="#fff" fill-rule="evenodd"/>
      <path id="_595859760" d="M4.675,6.965,6.9,4.74A3.813,3.813,0,0,0,4.675,3.8v3.17Z" transform="translate(13.055 10.464)" fill="#fff" fill-rule="evenodd"/>
      <path id="_595860096" d="M5.47,1.317A4.078,4.078,0,1,0,9.548,5.4,4.083,4.083,0,0,0,5.47,1.317Z" transform="translate(2.173 2.248)" fill="#fff" fill-rule="evenodd"/>
      <path id="_595860048" d="M15.224,11.318a9.55,9.55,0,0,0,.629-3.183,7.643,7.643,0,1,0-15.287,0c0,2.789,1.071,4.691,2.427,7.1.461.817.936,1.662,1.428,2.633l3.789,7.487,2.334-4.612a7.761,7.761,0,0,1,4.681-9.423Zm-7.015,1.5a4.684,4.684,0,1,1,4.684-4.684,4.689,4.689,0,0,1-4.684,4.684Z" transform="translate(-0.566 -0.491)" fill="#fff" fill-rule="evenodd"/>
      <path id="_595860312" d="M7.233,3.8A3.834,3.834,0,0,0,3.72,7.309H7.233V3.8Z" transform="translate(9.891 10.464)" fill="#fff" fill-rule="evenodd"/>
    </g>
  </g>
</svg>
