<svg xmlns="http://www.w3.org/2000/svg" width="24" height="24" viewBox="0 0 24 24">
  <g id="Group_5" data-name="Group 5" transform="translate(-128 -19)">
    <g id="Rectangle_7" data-name="Rectangle 7" transform="translate(128 19)" fill="#fff" stroke="#707070" stroke-width="1" opacity="0">
      <rect width="24" height="24" stroke="none"/>
      <rect x="0.5" y="0.5" width="23" height="23" fill="none"/>
    </g>
    <g id="List" transform="translate(127.975 19)">
      <path id="Path_1" data-name="Path 1" d="M21,7H3A1,1,0,0,1,3,5H21A1,1,0,0,1,21,7Z" fill="#ebebeb"/>
      <path id="Path_2" data-name="Path 2" d="M18,13H3a1,1,0,0,1,0-2H18A1,1,0,0,1,18,13Z" fill="#ebebeb"/>
      <path id="Path_3" data-name="Path 3" d="M12,19H3a1,1,0,0,1,0-2h9A1,1,0,0,1,12,19Z" fill="#ebebeb"/>
    </g>
  </g>
</svg>
