<svg xmlns="http://www.w3.org/2000/svg" width="40" height="40" viewBox="0 0 40 40">
  <g id="Group_3626" data-name="Group 3626" transform="translate(-1122 -321)">
    <g id="Group_3625" data-name="Group 3625">
      <g id="Rectangle_27" data-name="Rectangle 27" transform="translate(1122 321)" fill="none" stroke="#3e454c" stroke-width="0.5">
        <rect width="40" height="40" stroke="none"/>
        <rect x="0.25" y="0.25" width="39.5" height="39.5" fill="none"/>
      </g>
      <g id="usb" transform="translate(1017.872 327)">
        <g id="Group_32" data-name="Group 32" transform="translate(116.128)">
          <path id="Path_28" data-name="Path 28" d="M131.167,7.542h-3.494c-.121,0-.235-.025-.235.1v3.494c0,.121.113.185.235.185h.876v2.808l-4,3.919V6.432h1.575c.122,0,.22-.155.22-.275a.328.328,0,0,0-.035-.148L123.944.144a.226.226,0,0,0-.2-.144.214.214,0,0,0-.2.133l-2.384,5.886a.346.346,0,0,0,.021.261c.041.06.108.153.181.153h1.419V22.195L119,18.263V14.2a1.936,1.936,0,0,0,1.066-1.76,1.97,1.97,0,1,0-2.842,1.76v4.422a.888.888,0,0,0,0,.172.629.629,0,0,0,.012.063l0,.025a.648.648,0,0,0,.022.073.8.8,0,0,0,.037.074l.012.022a.426.426,0,0,0,.031.055.856.856,0,0,0,.109.133l4.846,4.846a2.4,2.4,0,0,0,1.45,4.325,2.377,2.377,0,0,0,2.369-2.407,2.484,2.484,0,0,0-1.571-2.243V20.514L130,15.106a.959.959,0,0,0,.129-.134.5.5,0,0,0,.041-.055l.017-.022a.5.5,0,0,0,.065-.147l.007-.024c.007-.021.03-.042.035-.066a.942.942,0,0,0,.033-.17v-3.17h.842c.121,0,.268-.064.268-.185V7.638C131.435,7.518,131.288,7.542,131.167,7.542Z" transform="translate(-116.128)" fill="#fff"/>
        </g>
      </g>
    </g>
  </g>
</svg>
